<svg xmlns="http://www.w3.org/2000/svg" width="853.333" height="1706.667" version="1.0" viewBox="0 0 640 1280"><path d="M315.9 13.9c-3.8 3.8-3.9 8.7-.4 12.9 3.2 3.8 6.5 4.6 11 2.8 2.5-1.1 4-2.6 5.1-5.1 1.8-4.5 1-7.8-2.8-11-4.2-3.5-9.1-3.4-12.9.4zM321.3 51.1c-3.9 1.1-8 5.9-8.9 10.4-.7 4.1 1.8 9.9 5.7 12.7 5.3 4 15.4 1.7 18.4-4.2 3.5-6.9.9-15-5.8-18.1-4.7-2.1-4.9-2.1-9.4-.8zM307.5 97.7c-10.1 5.3-13.4 17-7.4 25.8 6.5 9.4 19 10.6 27 2.6 8.8-8.8 6.6-22.7-4.4-28-5.1-2.5-11-2.6-15.2-.4zM278.5 144.9c-8.6 3.9-12.9 10.6-12.9 20.1 0 7.1 1.4 10.7 6.1 15.4 13.8 14 37.6 4.2 37.6-15.4 0-15.9-16.5-26.7-30.8-20.1zM147.3 166.5c-9.4 4.7-18 15.9-22.1 28.9-2.2 6.8-2 23.9.3 32.6 6 23 25.3 43.2 54.7 57.5 5 2.5 9.4 4.3 9.7 4 .2-.3-.9-2-2.6-3.8-4.7-4.9-12.1-16.9-14.8-24-5-13.5-4.4-23.8 3.1-47 7.1-21.8 6.5-29.4-3.2-39.7-6.1-6.6-12.9-11-16.9-11-1.7 0-5.4 1.1-8.2 2.5z" fill="#6f745b"/><path d="M227.6 186.5c-8.9 3.2-18.8 8.7-24.8 13.7-6.2 5.2-15.8 18-19.9 26.4-2.7 5.7-3.2 8.1-3.6 16.8-.6 11.3.9 18.6 4.9 24.6 9.8 14.5 27.7 9.5 30.3-8.4.9-6.7 2.5-8.2 4.8-4.4.9 1.6 3.3 3.6 5.2 4.4 1.9.8 3.5 2 3.5 2.7 0 .7-2 2.7-4.4 4.4-5.8 4.1-7.8 7.3-8.4 13.3-.8 9 5.8 15.7 16.6 16.7 7.5.7 15.4-1.5 25.1-7 6-3.4 8.4-5.6 13.1-11.9 5.9-7.8 10.3-16 13.6-25.3 2-5.7 3.1-24.8 1.8-32.3l-.7-4.7-.9 6.5c-1.8 13.5-9.7 24.4-21.9 30.4-6.9 3.3-25.3 8.7-25.7 7.5-.2-.5-1-.9-1.9-.9-1.1 0-1-.6.6-2.6 6.9-8.7-5-20.6-13.1-13.1-1.4 1.3-2.9 3.1-3.5 4-3.3 6.1-6.8-7.2-6.8-25.8 0-10.5.2-11.4 3.3-17.7 3.5-7.1 9.7-13.5 16.5-16.9 2-1.1 3.7-2.2 3.7-2.4 0-.6.5-.8-7.4 2z" fill="#6f745b"/><path d="M243 193.9c-8 1.7-14 6.7-17.8 15-4 8.8-2.2 19.2 4.9 26.6 1.5 1.6 2.8 3.3 2.9 3.7v2c0 .8.3.9 1.1.1.7-.7 2.1-.6 4.7.3 17.4 6.2 36-8 33.9-25.8-1.7-14.4-15.8-24.8-29.7-21.9zM302.5 269.9c-5.6 1.5-13.2 6-25.3 15-17.1 12.7-21.8 15.7-29.7 18.7-6.4 2.4-7.9 2.6-18 2.1-7.9-.3-12.5-1-16.5-2.5l-5.5-2.1 6 5.6c13 12.3 31.3 21.8 48.9 25.4 21.4 4.4 40 .7 57.1-11.6 11.4-8.1 19.5-20.3 19.5-29.5 0-4.1-.4-4.8-5.8-10-3.1-3.1-8.2-6.8-11.2-8.3-5.9-2.8-14.6-4.1-19.5-2.8zM186 307.2c-10.5 10.5-21 41.8-24.5 73-1.9 16.8-1.9 27.8 0 44.5 5.2 46.6 23.5 84.6 55.7 115.9 16.3 15.9 22.2 19 26.9 14.3l2-2-12.8-13.2c-17.1-17.6-28.5-33.9-38.7-55.2-16.3-33.9-24.9-77.6-21.7-110.1 2.7-27.6 8.3-44.3 20.1-59.9 3.9-5.2 5-7.3 4.6-9.1-.5-1.9-1.3-2.4-4-2.4-2.6 0-4.3.9-7.6 4.2zM91.2 341.2c-6.7 1-10.1 2.8-14 7.2-3.9 4.5-5.8 12.7-4.2 18.5 2.3 8.7 9 13.5 25.5 18 27.4 7.7 32.2 9.7 39.5 17 3.4 3.4 5.5 6.7 7.1 11.2l2.4 6.4.3-10.4c.5-18-6-36.3-18.5-51.9-6.7-8.3-11.1-11.4-20.3-14.1-8.8-2.6-11.6-2.9-17.8-1.9z" fill="#6f745b"/><path d="M226.3 374.9c-7.3 3.5-15.4 10.7-18.9 16.7-5 8.6-9.4 29.6-9.4 45.1 0 4.9.7 13.1 1.5 18.3 1.5 9.2 7.3 27.9 10.1 33 1.4 2.4 1.4 2.4.7-1-.4-1.9-.8-6.9-.7-11 .2-15.5 8.1-26.1 32.3-43.3 22.8-16.3 28.1-22.4 28.1-32.4 0-9.4-7.5-20.6-16.7-25.3-3.6-1.9-6.7-2.5-12.8-2.8-7.2-.3-8.6 0-14.2 2.7zM78.4 407.1c-4.2 1.3-7.8 3.4-11.2 6.4-6.8 6.1-8.6 10.2-8 18 .9 10.5 5.6 17.2 14.6 20.5 5 1.9 7.7 2.1 28.8 2 26.3 0 34.7 1.1 44 5.8 6.2 3.2 11.7 8.3 15.4 14.2l2.1 3.5-.7-4c-1.1-6.6-4.4-16.6-7.6-23-9.4-18.8-32.3-40.1-47.4-44-8.2-2.1-22.4-1.9-30 .6zM530.6 505.5c-12.3 4.4-16.3 13.1-19.6 42.4-3.6 32.2-8.7 44.8-22 54.6-5.1 3.8-15.9 8.5-19.4 8.5-2 .1-2 .1-.2 1.2 1.2.6 5.4.9 11.2.6 11.6-.6 13.8.4 5.8 2.8l-5.9 1.8 3.5.7c1.9.4 9.6 1.3 17 2 7.4.6 15.9 2 18.8 2.9l5.3 1.7-5.3.6c-2.9.4-8.2.7-11.8.7h-6.5l15 6c32.6 13.1 44.7 15.7 67.1 14.7 10.1-.5 14.3-1.2 18.5-2.9 14.7-6 23.9-15.3 23.9-24-.1-6.5-6.9-17.1-13.1-20.4-6.2-3.2-11.2-2-28 6.6-17.8 9.1-23 11.2-33.2 13.9-5.2 1.3-8.4 1.7-10.8 1.1-1.9-.4-2.6-.8-1.6-.9 1.1-.1 1.5-.6 1.1-1.3-.5-.8 0-.9 1.5-.5 1.3.3 2 .3 1.7 0-.3-.3 2.6-1.7 6.5-3 8.1-2.7 20.6-8.8 29.5-14.4 7.5-4.8 16.3-15.4 21.3-25.9 3.2-6.6 3.6-8.4 3.6-15.2 0-7-.2-7.9-3.1-11.4-3.8-4.7-10.2-8.1-17.1-9-7.9-1-13.1 1.9-19.4 10.9-4.9 7.1-8.4 10.4-9.2 8.9-.3-.4.1-3.1.9-6.1 2.1-8.2 3.1-20.7 2.2-27.2-.8-6.3-4.3-14.3-7.5-17.1-5-4.6-13.4-5.9-20.7-3.3zm18.5 67.6c-1.1 1.8-1.7 3.7-1.4 4.3.3.6.3.8-.2.4-.4-.4-2.7 1.7-5.1 4.7-4 4.9-9.3 9.5-10.8 9.5-1.1 0 2.7-5.4 5.9-8.4 1.6-1.5 2.3-2.5 1.5-2.1-.8.4.1-.8 2-2.6s3.4-3.8 3.2-4.4c-.2-.5-.1-.7.3-.3.4.4 1.9-.7 3.2-2.3 3.2-3.8 4-3.1 1.4 1.2zM134.2 520.1c-13.9 2.7-27.2 14.2-27.2 23.5 0 7.2 5.1 15.8 11.3 19.1 5.1 2.8 18.4 2.1 35.7-1.7 11.5-2.6 16.9-3.3 26-3.3 14-.1 20.4 2 27.5 8.8 2.5 2.4 4.5 4.2 4.5 3.9 0-.3-1.9-4.5-4.2-9.2-3.4-7.1-5.9-10.4-13.3-17.8-9.8-9.9-17.9-15.3-31.6-20.9-7.3-3-9.4-3.5-16.4-3.4-4.4.1-9.9.5-12.3 1zM298 536.4c-2.5 1.3-7 4.6-10 7.2-7.2 6.2-18.3 14.4-24.2 17.8-4.7 2.7-6.1 4.6-3.5 4.6 3 0 12.2 5.4 17.1 10 9 8.5 13.1 19.4 18.6 49.5 4.3 23.5 10.4 40.5 19.2 53.3 4.7 6.9 16.5 18.2 24.6 23.6 15.9 10.5 44.1 21.3 58.7 22.3 24.7 1.7 54.2-11 87.5-37.7 12.8-10.3 38.3-35.5 37.8-37.2-1.9-5.8-77.3-33-125.7-45.4-24.9-6.4-21.3-3.1-48-43.9-6.6-10.1-16-19.1-24-22.9-5.5-2.6-8-3.1-15.1-3.3-7.4-.3-9.1 0-13 2.1zm14 19.1c3.1 3.8-2.7 8.3-6.2 4.7-1.6-1.6-1.8-2.3-.9-4.1 1.3-2.4 5.3-2.8 7.1-.6zm47.3 87c9.4 6.2 15.5 7.8 30.2 7.8 7.2 0 17.1-.5 22.2-1.2 15.3-2.1 23.5.7 27.4 9.3 4.3 9.5.5 17.4-11.1 23.4-8.2 4.2-15.1 4.9-25.1 2.9-16-3.3-28.8-10.4-39.5-22-7.2-7.7-14.1-20.2-12.3-22.3 1.6-2 2.3-1.8 8.2 2.1zM82.5 602.7c-1.7 20.1 6.3 37.2 23.5 50.2 4.4 3.3 14.7 9.3 23.4 13.6 23.3 11.4 30.5 17.4 36.3 30.2 2.3 5 2.7 7 2.6 14.8-.1 4.9-.8 11.5-1.6 14.5-.9 3-1.4 5.7-1.2 5.9.6.5 8.4-5.7 14.8-11.8 17.5-16.8 20.3-36.6 8-56.9-10.5-17.2-15.5-20.1-54.9-32.1-21.3-6.4-36.5-16.7-45.5-30.7-2.3-3.5-4.3-6.4-4.4-6.4-.2 0-.6 3.9-1 8.7zM45 621.7c-2.3.9-6 4.5-7.6 7.5-1.9 3.6-1.8 7.2.3 11.5 2.1 4.6 6.7 7.3 12.2 7.3 14.6 0 19-18.8 6.1-25.5-2.9-1.5-8.1-1.9-11-.8z" fill="#6f745b"/><path d="M66 649.6c0 1.2 9.3 18.4 15.7 29.1 16.3 27 27.4 39.9 39.4 45.6 14.9 7.1 27.1 6.8 33.8-.8 2.7-3.1 3.1-4.4 3.1-9 0-10.4-6.5-22.2-16.5-29.7-11.3-8.5-41.5-23.5-64.7-32.2-10.2-3.8-10.8-4-10.8-3zM562.5 658.6c-8.4 1.5-29.5 7.4-44.3 12.3l-8.7 2.9 11 .1c21.8.2 43.4 5.1 56 12.6 3.3 2 10.3 6.9 15.5 11.1 10.1 7.9 14.8 10 20.2 9 9.5-1.8 13.1-8.1 10.9-18.9-2.8-13.6-9.6-21.4-23.2-26.7-7.2-2.8-9.9-3.3-18.9-3.6-6.6-.2-13.5.2-18.5 1.2z" fill="#6f745b"/><path d="M21.7 672.4c-8.6 2.5-8.6 2.5-2.7 5 11.7 4.7 23 14.3 30.3 25.7 1.9 3 8.3 15.1 14.2 26.9 12.1 24 16.2 29.3 27.2 34.8 11 5.6 18.4 7.4 28.1 7 11.2-.4 19.4-4.1 27.9-12.8 5.1-5.1 16.9-22.7 15.9-23.7-.2-.2-2.4.6-5 1.7-20.1 8.6-36.1 5.8-50.5-8.7-3.6-3.8-10.5-12.4-15.1-19.3-13.1-19.2-24.3-29.5-38.2-35.1-6.8-2.7-24.9-3.6-32.1-1.5zM511 685.8c-3.6 1-8.1 2.7-10 3.7l-3.5 1.9 7 .7c26.4 2.6 39.2 11 53.7 35.6 11 18.5 16.1 22.3 27.1 20.2 9-1.7 13.1-7.5 13.1-18.4 0-9.4-3.5-16.8-12-25.2-7.4-7.2-20.4-14.1-32.9-17.4-11.5-3.1-33.5-3.6-42.5-1.1zM248.9 688.3c-10 2.8-20.3 11.7-25.5 21.8-6.3 12.6-5.6 45.4 1.4 65.9 2.1 5.9 9.5 21 13.6 27.5 2.8 4.5 3.5 4.1 1-.6-2.6-5.1-3.6-14.4-2.3-20.8 2.2-11.1 5.9-16.2 25.9-36.1 20.4-20.3 23-24 23-32.9 0-6.1-1.6-9.7-7.3-15.8-7.7-8.4-19.5-11.9-29.8-9zM178.7 746.7c-1.6 1.5-.3 3.7 6 10.5 26.1 28.5 42.5 64.3 48.4 105.7 1.4 10.1.6 37.1-1.5 48.1-2 10.7-.1 13.7 5.3 8.2 4.2-4.1 5.5-12.9 5.5-36.2 0-20.1-1.1-30.3-5.4-48.3-7.7-32.6-24.5-65.1-41.3-80.3-7-6.3-14.9-9.9-17-7.7zM405.3 748c-4 2.4-5.3 4.8-5.3 10 0 3.4.6 4.8 3.4 7.6s4.1 3.4 7.8 3.4c5 0 8.2-1.8 10.3-6 1.9-3.7 1.9-6.4 0-10.4-3-6.2-10.2-8.3-16.2-4.6zM334.1 761.2c-14 4-25.1 21.3-28.6 44.6-6.5 44.3-3.1 73.3 11 91.4 2 2.6 4.8 5.4 6.2 6.4 2.5 1.6 2.6 1.6 1.9-.2-.4-1-1.1-6.6-1.6-12.4-2.4-27 4.9-51.8 24.4-82.8 16.3-25.9 17.4-33.2 6.6-42.4-6.1-5.3-12.5-6.8-19.9-4.6z" fill="#6f745b"/><path d="M402.5 786.1c-30.7 1.9-40.9 7.5-50.1 27.4-2 4.2-3.4 7.9-3.2 8.1.2.2 3.2-.6 6.7-1.6 4.3-1.4 9.2-2 15.6-2 10.8 0 14.8.7 33.5 6 21.3 6 23.9 6.5 34.5 6.4 12.1 0 18.6-2.5 21.2-8 4.1-8.5-6.5-23.5-22.2-31.2-10.6-5.3-17.6-6.3-36-5.1zM266 812.8c-6.1 1.6-10.6 7.1-14.1 17.3-1.7 5-2.2 8.6-2.1 16.4 0 12.1 1.7 17.5 9.5 30.8 11.7 19.7 20 28.9 30.2 33.2 4.5 1.9 19.3 3.1 24.9 2.1l3.7-.7-5.6-6.2c-7.3-8-12-17.9-15.5-32.5-1.5-6.4-4.2-17.5-5.8-24.6-3.7-15.5-7.9-24.4-14.3-30.7-4.6-4.5-7.8-6-10.9-5.1zM365.5 831.4c-7.6 2.4-13 5.9-20.1 13-11.4 11.5-15.7 23.3-13.5 37.3 2.4 15.5 15.1 33.5 28.9 40.5 9.3 4.9 14.6 6.1 24.4 5.6 11-.5 17.9-3.6 25.7-11.7 6.5-6.8 14.3-21.1 11.4-21.1-.3 0-5.5 1.6-11.4 3.5-11.5 3.7-19.6 4.5-24.6 2.3-9.6-4.1-17.2-12.7-20.5-23.1-3.8-11.9-.3-23.5 10.1-33.7 3.3-3.2 7.3-6.6 9-7.6 1.7-1 3.1-2.1 3.1-2.4 0-.4-1.6-1.4-3.5-2.3-4.2-2-13.2-2.1-19-.3zM459.2 838.1c-9.1 6.7-13.8 17.3-21.1 47.4-2.2 8.8-4.9 18.5-6 21.6-2.8 7.4-8.8 16.5-14.1 21.6-2.3 2.3-3.8 4.3-3.3 4.6 2.1 1.3 15.3 1.8 20.7.8 13.1-2.4 21.8-9.6 33.6-27.7 11.6-17.8 15-26.6 15-39.1 0-11.2-5.3-25.1-11.3-29.7-4.5-3.4-8.4-3.3-13.5.5z" fill="#6f745b"/><path d="M396.7 843.1c-16.1 3.8-23.6 21.7-15.1 35.6 5.6 9 17.9 13.6 27.9 10.3 8-2.7 15.1-11.8 16.1-20.8 1.7-15-14-28.7-28.9-25.1zM139.3 866.1c-12.3 4.7-18.4 19.7-13.4 32.9 4 10.4 12.1 17.5 36.1 31.5 19.1 11.1 24.5 14.9 32.6 22.9 11.6 11.6 17.1 25.4 16.1 40.6l-.5 7.5 1.9-6c6.5-20.4 9-34.3 9-50.7.1-26.7-6.2-42-25-61.3-10.3-10.6-14.7-13.6-25.2-17.1-9.3-3.2-23.8-3.3-31.6-.3zM330.4 916.7c6.2 23.6 26.4 40.6 70.1 59.1 15.9 6.8 23.5 8.5 35.5 8 11.8-.5 18.4-3.1 24-9.5 9.8-11.2 6.4-28-6.5-32.4-3-1-11.4-1.4-33.5-1.4-32-.1-35.5-.5-52.2-6.3-12.5-4.4-22.3-9.9-35-19.5l-3.7-2.8 1.3 4.8z" fill="#6f745b"/><path d="M317.7 918.5c-10.9 15-12.7 28-6.2 44.4 5.1 13 14.7 29.3 21 35.6 15.4 15.4 41.1 20.6 48.2 9.8 2.2-3.4 1.1-11.3-2.8-19.3-2.7-5.5-6.4-9.7-24.3-27.5-18.4-18.2-21.7-22-25.1-28.5-2.1-4.1-4.6-10.2-5.5-13.5l-1.7-5.9-3.6 4.9zM288.2 925.5c-21.9 10.2-51.1 48.1-64.7 84-10.1 26.6-14.8 55.3-12.6 77.4.6 6.1 1.5 11.9 2 12.9 1.6 3 5 5.5 6.6 4.9 1.9-.8 1.9-3.9-.2-12.4-2.6-10.5-2.3-34.8.6-48.3 3.6-17 9.8-34.2 18.8-52 16.7-33.2 38.5-57.5 54.9-61.1 6.2-1.4 8.4-3.8 5.8-6.3-2.2-2.2-5-2-11.2.9zM105.5 947.6c-9.9 1.4-18.1 4.9-23.3 9.8-5.4 5-7.5 10-8 19.2-.4 7.2-.1 8.9 2.1 13.8 6.6 14.3 16.7 21.5 52.9 37.5 7.6 3.3 17 7.7 21 9.7 31.9 16 46.9 35.7 47.2 62.1 0 5 .2 9 .4 8.9.1-.2 1.2-5.5 2.4-11.7 3.1-16.7 3.1-47 0-62.1-9.4-45.6-34.7-77.6-67.2-85.2-6.8-1.6-22.3-2.7-27.5-2zM306 1047.9c-9.5 1.2-19.4 3.9-29 8-15 6.5-23.7 13.2-34.8 26.5-17.5 21.3-27.8 45.4-32.8 77.1-2.1 12.7-2.3 45.6-.5 57.5 2.5 16.5 6 31.6 10.4 45l1.5 4.5-.5-7.5c-.2-4.1-.6-8.1-.8-8.7-.9-2.9 1.8-19.5 4.4-27.1 3.5-10.1 7.7-17.2 15.7-26.6 11.2-13.1 25.1-23.2 63.2-45.4 31-18.2 40.8-25.4 50-36.9 7.5-9.3 9.7-15.7 9.6-27.8 0-8-.5-11.2-2.4-15.9-4-10.5-13.7-18.4-26-21.4-6.4-1.5-20.3-2.2-28-1.3z" fill="#6f745b"/></svg>