<svg xmlns="http://www.w3.org/2000/svg" width="436.072" height="485.406" fill="none" style="max-height:500px;background:0 0" viewBox="182.766 116.946 436.072 485.406"><path fill="#72451B" fill-rule="evenodd" d="M519.951 124.198a2.5 2.5 0 0 1 3.397.981c2.469 4.474 5.019 8.954 7.584 13.459 11.122 19.532 22.518 39.547 28.682 61.682 8.8 31.601 6.882 65.967-2.952 97.862 6.726 5.173 12.788 10.894 18.123 17.185a107.407 107.407 0 0 1 17.879 29.663c16.299 27.552 24.058 58.029 12.519 88.371-2.484 6.532-6.3 12.032-11.045 16.655-6.166 28.166-15.926 56.066-30.388 80.483-22.643 38.23-52.182 58.467-84.099 61.451-18.429 1.722-37.44-2.328-56.135-11.749-23.583 3.674-49.413-.848-73.885-9.827-36.147-13.261-69.942-36.449-90.346-58.553-24.152-26.166-49.83-79.389-62.284-133.582-6.237-27.137-9.197-54.673-6.933-79.33 2.263-24.643 9.767-46.631 24.674-62.376 8.629-9.113 20.069-14.763 32.016-18.604 11.832-3.803 24.366-5.892 35.435-7.736l.308-.052a378.83 378.83 0 0 1 20.552-2.853c9.512-7.196 21.794-10.978 35.897-10.998 18.823-16.006 42.341-25.527 70.509-23.207 46.812 3.855 84.757 23.721 110.143 64.292 8.227 13.147 13.709 27.817 16.849 43.09a373.444 373.444 0 0 1 15.278 14.063c.222.155.444.311.664.467 9.131-30.588 10.768-63.341 2.404-93.374-5.982-21.48-16.993-40.831-28.09-60.33-2.595-4.561-5.195-9.13-7.737-13.736a2.501 2.501 0 0 1 .981-3.397Zm11.36 158.47c-11.17-9.614-22.267-18.089-32.218-25.117-19.446-13.735-39.408-24.156-60.251-31.682a185.218 185.218 0 0 1 15.891 17.276c9.562 2.68 18.893 5.923 27.873 9.799 16.205 6.996 33.034 16.271 46.572 28.707.716.335 1.427.674 2.133 1.017Zm-18.734-7.819c-9.98-6.891-20.992-12.583-31.952-17.314a207.476 207.476 0 0 0-17.796-6.712 286.558 286.558 0 0 1 13.119 12.43c.737.743 1.469 1.492 2.194 2.246 1.591.329 3.194.668 4.807 1.016 10.414 2.243 20.314 5.014 29.628 8.334Zm-43.224-11.101-.443-.432.237.393.206.039Zm3.092 5.696c1.048.209 2.101.421 3.16.637 22.393 23.622 39.024 52.383 48.404 83.022a181.75 181.75 0 0 1-5.63 7.435c-3.235-21.634-13.319-42.554-28.58-60.557a167.744 167.744 0 0 0-7.06-7.821 150.641 150.641 0 0 0-2.264-5.906 161.55 161.55 0 0 0-8.03-16.81Zm-9.932-6.956a176.286 176.286 0 0 0-9.616-13.615c-.632-.527-1.268-1.05-1.905-1.571-29.021-7.815-60.223-10.481-90.16-10.01a214.129 214.129 0 0 1 7.317 4.165c10.066.728 19.907 2.102 29.465 4.168 16.894-2.187 33.976 1.519 50.332 12.469 1.244.832 2.48 1.699 3.707 2.598 3.555.544 7.175 1.143 10.86 1.796Zm-2.963 4.557c2.125.368 4.275.754 6.447 1.158a162.192 162.192 0 0 1 6.279 11.862 122.01 122.01 0 0 0-12.726-13.02Zm-19.507-7.962c-7.715-4.377-15.573-7.102-23.485-8.317a169.537 169.537 0 0 1 19.662 7.866c1.265.143 2.539.293 3.823.451Zm8.785 6.24.847.126c.775.582 1.545 1.177 2.31 1.784a161.398 161.398 0 0 0-3.157-1.91Zm-28.961-8.117c-7.269-2.648-14.766-4.81-22.462-6.51a74.114 74.114 0 0 0-11.53 2.606 193.496 193.496 0 0 1 5.081 3.932c8.963-.646 18.596-.646 28.911-.028Zm-23.281 4.715c11.587-.49 24.319.053 38.238 1.587 14.265 6.875 27.483 15.882 39.404 27.235a110.421 110.421 0 0 1 5.787 9.033c10.001 32.33 7.379 66.552-15.596 95.309-.784.981-1.581 1.966-2.392 2.954a272.252 272.252 0 0 0-2.703-19.539c5.035-15.624 8.213-32.896 7.402-48.873-.657-12.935-3.94-25.197-11.156-35.027-7.254-9.881-18.322-17.082-34.098-20.116-4.51-.867-8.787-1.238-12.845-1.168a185.487 185.487 0 0 0-12.041-11.395Zm-12.893-4.005a190.453 190.453 0 0 0-3.534-2.609 94.352 94.352 0 0 0-10.712 5.014c4.533-1.025 9.282-1.824 14.246-2.405Zm-30.617 12.895c10.338-4.48 22.395-7.273 36.284-8.438a182.835 182.835 0 0 1 12.74 11.452c-14.026 1.983-25.185 9.493-34.112 19.769-12.577 14.478-20.807 34.508-26.83 52.399-.494 1.466-.998 2.954-1.509 4.461l-.001.005-.026.075c-5.288 15.604-11.284 33.314-13.428 50.521a62.117 62.117 0 0 1-1.282-5.411c-4.513-23.884-3.208-53.391-.244-77.784 1.64-13.499 6.083-23.781 12.895-32.405 4.236-5.363 9.423-10.13 15.513-14.644Zm-2.516-4.358c3.792-2.784 7.872-5.447 12.21-8.064 4.125-2.489 8.304-4.656 12.521-6.48a201.584 201.584 0 0 0-8.684-5.547 226.55 226.55 0 0 0-3.216-.193c-22.568-1.198-42.11 1.037-58.724 5.905-4.447 9.742-8.088 19.851-10.92 29.935a357.552 357.552 0 0 0-2.998 11.395c2.462 15.173 6.011 30.336 9.76 45.071 4.554-26.285 14.351-45.968 29.98-59.46 5.9-5.092 12.588-9.263 20.071-12.562Zm-46.765 84.709c3.267-30.677 12.697-52.653 28.542-67.102-6.677 9.034-10.994 19.707-12.633 33.197-2.985 24.576-4.359 54.682.295 79.315 1.042 5.517 2.877 11.168 5.379 16.701-.007 2.317.08 4.619.272 6.899a260.298 260.298 0 0 1-2.35-1.519c-7.447-23.965-14.502-48.451-18.513-63.711l-.992-3.78Zm-5.067.39c-3.843-14.667-7.771-30.044-10.814-45.635a341.354 341.354 0 0 0-.84 4.167c.136 4.244.394 8.523.763 12.822 1.552 18.085 5.059 36.345 9.656 53.41.036-8.758.444-17.01 1.235-24.764Zm4.189 42.896c-.485-9.966-.557-19.305-.212-28.04 3.684 13.351 8.67 30.474 13.977 47.761a277.393 277.393 0 0 1-9.175-6.716 326.723 326.723 0 0 1-4.59-13.005Zm-4.96.919c-6.479-19.788-11.775-42.066-14.334-64.387-2.354 17.343-3.49 34.84-3.659 52.824a288.591 288.591 0 0 0 12.382 11.308 351.555 351.555 0 0 0 5.875 4.961 401.233 401.233 0 0 1-.264-4.706Zm.74 11.54a345.596 345.596 0 0 1-9.618-8.01 305.063 305.063 0 0 1-9.141-8.209c-.01 2.748-.037 5.546-.065 8.382-.154 15.791-.319 32.73 2.426 48.496.176 1.011.364 2.015.564 3.013a166.004 166.004 0 0 0 7.919 6.275c4.473-.227 8.971-.634 13.455-1.173-1.134-6.93-1.91-13.904-2.657-20.614-.264-2.375-.525-4.717-.796-7.013a524.234 524.234 0 0 1-2.087-21.147Zm6.415 53.707a215.77 215.77 0 0 1-7.879.812 175.688 175.688 0 0 0 9.319 5.866 142.686 142.686 0 0 1-1.44-6.678Zm7.51 10.081c-1.01-3.507-1.841-7.096-2.546-10.734 6.908-.977 13.706-2.217 20.247-3.544 2.783 8.087 5.416 15.325 7.745 21.142a648.987 648.987 0 0 0 1.936 4.781 147.712 147.712 0 0 1-18.639-7.256 185.176 185.176 0 0 1-8.743-4.389Zm-4.2 3.408a179.5 179.5 0 0 1-19.179-12.177 166.72 166.72 0 0 1-3.385.101c4.37 13.173 11.79 24.53 24.298 32.392a82.33 82.33 0 0 0 13.183 6.696c-7.256-7.757-11.842-17.095-14.917-27.012Zm27.178 30.952c-10.3-6.998-16.625-16.612-20.741-27.571 1.443.724 2.904 1.432 4.382 2.126a152.21 152.21 0 0 0 23.25 8.684c2.868 6.733 5.834 13.2 9.058 19.44-5.4-.511-10.738-1.387-15.949-2.679Zm-2.056 4.64c-9.127-2.345-17.919-5.933-26.049-11.043-14.256-8.961-22.33-22.002-26.884-36.616-9.046-.147-17.931-1.162-26.329-3.438-27.431-7.432-39.453-32.871-44.728-60.594-4.481-23.545-4.251-49.537-4.076-69.321.031-3.568.061-6.935.061-10.048 0-32.946 8.536-71.26 46.895-85.73 12.997-4.903 25.46-8.941 37.788-10.972a49.247 49.247 0 0 1 6.437-8.799c-4.455.579-8.901 1.24-13.336 1.979l-.154.026c-11.166 1.861-23.399 3.9-34.88 7.59-11.529 3.706-22.09 9.016-29.916 17.282-13.87 14.649-21.123 35.407-23.326 59.395-2.201 23.974.668 50.955 6.827 77.753 12.336 53.677 37.718 105.996 61.085 131.311 19.838 21.49 52.951 44.248 88.394 57.25 21.674 7.952 43.993 12.179 64.585 10.398-11.031-6.448-21.909-14.767-32.446-24.874-9.653-9.259-17.303-18.932-23.792-29.211-9.653-3.232-18.539-7.473-25.498-11.912-.221-.141-.44-.283-.658-.426Zm22.08 5.548a123.167 123.167 0 0 1-6.452-2.726c1.722.19 3.45.343 5.18.461.419.759.843 1.513 1.272 2.265Zm11.534 9.037a147.201 147.201 0 0 0 19.795 23.356c12.191 11.693 24.747 20.844 37.368 27.402 10.05-1.74 19.585-5.065 28.308-10.261 25.634-15.271 43.506-43.636 58.195-69.563a166.117 166.117 0 0 0 10.311-21.731 225.97 225.97 0 0 1-14.568.086c-8.855-.233-17.724-.899-26.581-1.9-9.903 7.272-20.357 13.801-31.229 19.417-6.601 12.304-15.779 22.768-28.176 30.191-12.449 7.453-28.86 7.929-44.505 5.028a117.669 117.669 0 0 1-8.918-2.025Zm73.389-29.166c-5.804 8.827-13.224 16.299-22.535 21.873-10.929 6.543-25.89 7.208-41.024 4.401-4.742-.879-9.455-2.091-14.008-3.543a174.79 174.79 0 0 1-2.734-4.595c12.853.311 25.75-1.181 37.875-3.779 14.555-3.119 28.781-8.011 42.426-14.357Zm11.89-11.675a230.692 230.692 0 0 0 20.228-12.672 417.973 417.973 0 0 1-13.625-2.048 94.17 94.17 0 0 1-1.66.737c-1.374 4.819-3.013 9.496-4.943 13.983Zm-.989-11.631c-1.748 5.451-3.863 10.658-6.382 15.55-15.322 7.775-31.453 13.68-47.993 17.224-12.818 2.747-26.354 4.19-39.657 3.566-3.128-5.844-6.01-11.916-8.789-18.259 31.868 7.56 66.122 4.488 94.864-13.563a212.57 212.57 0 0 0 5.76-3.751 98.331 98.331 0 0 0 2.197-.767Zm15.192-6.945a384.4 384.4 0 0 0 11.958 1.613c18.048-13.481 34.201-29.497 47.57-46.96a121.209 121.209 0 0 0 6.574-9.51c-.026-11.822-1.184-23.658-3.398-35.338-3.659 9.892-8.375 19.536-13.927 28.799-2.843 9.481-7.213 18.822-13.253 27.837-10.112 15.093-22.125 26.016-35.524 33.559Zm52.249-78.361c3.352-6.983 6.183-14.125 8.406-21.371-.48-1.995-.991-3.984-1.531-5.966-.75 1-1.509 1.992-2.276 2.974a168.173 168.173 0 0 1-4.314 5.293 98.69 98.69 0 0 1-.285 19.07Zm-4.431-13.744a92.387 92.387 0 0 1-3.672 28.705c-13.142 21.747-31.059 41.394-50.771 57.032 1.528-7.686 2.476-15.617 2.94-23.615.248-4.265.36-8.56.347-12.859 3.969-5.345 7.846-10.91 11.472-16.65 14.537-9.181 27.967-19.921 39.684-32.613Zm-.457-6.978c-2.092-20.494-10.713-40.55-24.446-58.175 4.22 9.672 6.852 19.863 7.291 30.112.856 19.962-6.13 39.648-16.182 57.741 12.229-8.553 23.476-18.357 33.337-29.678Zm-42.856 35.969a201.053 201.053 0 0 0 4.749-8.003c10.041-17.885 16.768-36.883 15.957-55.815-.182-4.251-.772-8.505-1.72-12.721 2.156 25.238-3.955 50.653-21.806 72.996a287.022 287.022 0 0 1-5.681 6.889c.04.55.079 1.1.116 1.651a239.347 239.347 0 0 0 8.385-4.997Zm-21.447 17.509a280.146 280.146 0 0 0 8.473-4.295c.061 1.803.102 3.608.121 5.412-5.83 7.767-11.857 15.084-17.586 21.816-4.803 5.644-9.983 10.574-15.455 14.658a1036.452 1036.452 0 0 1-17.23-4.104c4.642-2.329 8.94-5.454 12.906-9.078 10.261-6.966 19.981-15.478 28.771-24.409Zm7.8-15.844a260.393 260.393 0 0 1-10.764 11.724 297.641 297.641 0 0 1-5.539 2.601c2.669-4.432 5.073-8.83 7.218-12.943 2.602-4.986 5.116-10.524 7.408-16.427a261.042 261.042 0 0 1 1.677 15.045Zm-.265-35.595c3.274-12.54 5.121-25.689 4.499-37.938-.624-12.3-3.728-23.517-10.192-32.322-6.427-8.753-16.332-15.342-31.012-18.165a60.334 60.334 0 0 0-7.134-.948c14.966 16.738 26.908 36.365 35.15 58.877 3.243 8.855 6.248 19.228 8.689 30.496ZM406.567 278.4c16.027 17.018 28.712 37.234 37.282 60.642 4.037 11.026 7.703 24.487 10.333 39.099-2.926 8.867-6.465 17.18-10.202 24.342-3.137 6.014-6.785 12.552-10.97 18.856a357.086 357.086 0 0 1-15.399 6.089l.027-.058a81.236 81.236 0 0 0 8.369-8.171c6.608-7.433 13.399-16.595 18.035-26.6 4.634-10.001 7.19-21.012 5.058-32.026-1.5-7.747-7.476-14.117-13.861-19.287-.51-.413-1.025-.82-1.544-1.222l-.001-.097c-.025-4.898-.518-10.07-2.636-14.516-4.367-9.172-14.083-11.934-23.406-11.79-6.419.099-13.079 1.557-18.648 3.603-4.784.07-9.193 1.362-13.382 3.6-5.565 2.974-10.712 7.601-15.874 13.123-4.043 4.325-8.198 9.316-12.621 14.628-.865 1.039-1.74 2.091-2.627 3.152v-.047c.471-1.39.937-2.768 1.396-4.132 5.991-17.796 13.972-37.023 25.867-50.715 9.051-10.419 20.314-17.593 34.804-18.473Zm-75.51 124.076a101.236 101.236 0 0 0-.579 6.917c-.045.94-.075 1.876-.09 2.807a83.215 83.215 0 0 0 4.504 8.325 89.27 89.27 0 0 1-.031-2.884 78.816 78.816 0 0 1-3.804-15.165Zm5.259 29.843a228.889 228.889 0 0 1-3.924-2.208 50.06 50.06 0 0 0 2.759 7.784 46.807 46.807 0 0 0 6.876 10.902l.328-.073c1.239-.276 2.48-.555 3.723-.837a20.33 20.33 0 0 1-4.8-4.535c-2.417-3.15-3.982-6.951-4.962-11.033Zm15.295 19.43c-1.866.432-3.727.857-5.581 1.275 2.894 2.729 6.267 5.291 10.179 7.658 15.735 9.52 31.208 11.411 45.496 7.759 6.186-1.582 12.19-4.214 17.923-7.76a1240.456 1240.456 0 0 1-19.393-4.72c-3.77 1.249-7.464 2.024-11.062 2.369-7.926 3.214-16.948 3.562-26.758-.362-4.096-1.638-7.689-3.728-10.804-6.219Zm75.934-22.768c-3.033 3.917-6.276 7.566-9.731 10.756-4.433 2.992-8.956 5.675-13.535 7.952 3.844-4.034 7.18-8.737 9.98-13.729a383.528 383.528 0 0 0 13.286-4.979Zm-5.004-13.41c6.323-7.155 12.664-15.793 16.965-25.074 4.363-9.418 6.552-19.329 4.685-28.974-1.053-5.441-5.155-10.46-10.66-15.156l-.04.886-.018.381c-.103 2.223-.199 4.305-.199 6.24 0 19.645-3.599 42.093-10.733 61.697Zm6.019-79.263c-.237-3.242-.821-6.199-2.016-8.708-3.103-6.515-10.222-9.072-18.815-8.94-2.359.037-4.76.279-7.118.676a47.884 47.884 0 0 1 4.509 1.885 25.388 25.388 0 0 1 4.047 1.851 27.801 27.801 0 0 1 3.85 2.644 93.063 93.063 0 0 1 3.438 2.369c1.795 1.294 3.845 2.659 6.07 4.141.892.593 1.811 1.206 2.754 1.84 1.076.724 2.175 1.471 3.281 2.242Zm-6.153 1.852.082.055c2.052 1.38 4.141 2.816 6.178 4.318a205.033 205.033 0 0 1-.171 4.49l-.019.418c-.102 2.187-.203 4.378-.203 6.433 0 16.866-2.733 35.808-8.088 53.03l1.731-8.817c4.539-18.166 9.051-40.908.646-59.586a112.67 112.67 0 0 0-.156-.341Zm-19.196-12.309c2.157 1.043 4.431 2.334 6.835 3.897 3.279 2.736 6.006 6.47 7.957 10.805 7.611 16.914 3.635 38.031-.953 56.383-3.863 15.455-12.073 29.383-23.6 38.552-12.023 3.976-23.907 3.44-33.38-.722-8.637-3.795-15.347-10.611-18.546-19.926a36.855 36.855 0 0 1-1.324-4.99c.449-5.814 1.26-11.466 1.948-16.267l.358-2.507a102.167 102.167 0 0 1 3.851-16.852c3.944-8.793 9.385-18.332 16.011-26.706 7.876-9.951 17.256-18.045 27.591-21.49 4.856-1.619 9.312-1.513 13.252-.177Zm-61.523 46.564c2.269-7.026 5.282-13.872 9.03-20.298a1553.513 1553.513 0 0 1-3.482 4.171 47.637 47.637 0 0 0-4.23 5.908 150.752 150.752 0 0 1-.961 3.638l-.057.211c-1.029 3.761-1.978 7.231-2.251 10.974a129.587 129.587 0 0 1 1.951-4.604Zm53.124 77.019c4.524-3.338 8.558-7.799 12.009-12.917a472.809 472.809 0 0 1-11.095 3.548 57.253 57.253 0 0 1-11.051 6.699c1.981.563 3.984 1.102 6.008 1.619l4.129 1.051Zm-6.816 3.419a236.328 236.328 0 0 1-11.129-3.206 53.959 53.959 0 0 1-5.996 1.34l.072.028c5.504 1.749 11.232 2.449 17.053 1.838Zm23.346-26.852.909-4.631a74.149 74.149 0 0 1-5.438 7.759 66.965 66.965 0 0 0 4.529-3.128Zm-54.63 16.227c1.613.684 3.239 1.351 4.877 2l-1.905.466a50.756 50.756 0 0 1-2.972-2.466Zm69.639 19.999c-7.311 5.154-15.165 8.95-23.408 11.058-.677.173-1.356.334-2.037.484 16.325.638 31.849-1.011 46.114-5.721.566-.384 1.132-.772 1.696-1.164-7.49-1.412-14.95-2.984-22.365-4.657Zm42.631-4.625c10.946-9.289 21.255-19.79 30.4-31.182a103.31 103.31 0 0 1-1.372 2.101c-8.394 12.53-18.165 22.065-29.028 29.081Zm-15.015 5.165c-7.492-1.346-14.969-2.867-22.417-4.505 4.581-3.767 8.916-8.074 12.964-12.831 4.441-5.218 9.089-10.819 13.704-16.735-.056 1.97-.14 3.935-.254 5.894-.564 9.707-1.848 19.195-3.997 28.177Zm-21.477 14.048c-16.774 2.958-34.729 2.594-53.18-.042-15.355-2.194-29.84-7.006-41.921-15.292 1.891 5.322 3.683 10.13 5.321 14.219a552.035 552.035 0 0 0 3.443 8.417c28.762 7.623 59.631 6.254 86.337-7.302Zm-95.484-21.798c4.606 3.561 9.661 6.537 15.069 8.982-4.616-2.952-8.534-6.196-11.828-9.687-1.07.235-2.151.47-3.241.705Zm-.425-5.024a51.654 51.654 0 0 1-5.985-10.037c-1.94-4.288-3.271-8.761-4.103-13.355l-.872-.539a1279.398 1279.398 0 0 0 8.007 24.562c.99-.209 1.974-.42 2.953-.631Zm-10.186-5.24a1471.518 1471.518 0 0 1-7.338-22.91 266.94 266.94 0 0 1-8.07-5.586c2.347 5.668 4.752 10.953 7.158 15.766 2.349 4.697 5.117 8.93 8.25 12.73Zm-22.183-31.937c.432 4.757.944 9.64 1.537 14.651.28 2.368.547 4.759.815 7.165.754 6.763 1.521 13.636 2.632 20.401 5.767-.813 11.487-1.817 17.08-2.911-4.914-5.074-9.17-10.998-12.603-17.863-3.202-6.404-6.398-13.618-9.461-21.443Zm158.918.933c-.018-.481-.038-.962-.06-1.443.591-.329 1.18-.659 1.768-.992a285.61 285.61 0 0 1-1.708 2.435Zm66.365-59.742c.137.467.273.935.407 1.404.23-.983.453-1.97.668-2.96a186.66 186.66 0 0 1-1.075 1.556Zm8.206-12.794a189.089 189.089 0 0 1-3.717 18.565 142.071 142.071 0 0 1-1.515 5.514c2.795 11.959 4.515 24.129 5.078 36.332 12.076-23.002 18.038-50.817 12.819-75.386a68.72 68.72 0 0 0-1.714-6.499 202.132 202.132 0 0 1-10.951 21.474Zm8.397-28.276a198.356 198.356 0 0 1-6.911 15.151c.708-9.089.756-18.292.064-27.427 2.65 3.856 4.955 7.943 6.847 12.276Zm5.404-.051a74.095 74.095 0 0 1 3.755 12.313c6.092 28.681-2.233 61.115-17.509 86.213-.099 19.143-3.099 38.254-9.323 56.657 10.576-.783 21.823-2.451 32.309-5.537 11.18-3.29 21.288-8.124 28.846-15.052 2.361-11.022 4.171-22.094 5.494-33.022 3.167-26.145.542-48.447-6.919-67.232-2.978-5.005-6.262-9.937-9.79-14.777-7.136-9.789-15.239-19.153-23.77-27.936a203.56 203.56 0 0 1-3.093 8.373Zm-.839-12.351a199.016 199.016 0 0 1-2.082 5.975c-2.529-4.908-5.556-9.486-8.976-13.759a137.307 137.307 0 0 1 8.933 5.689c.71.694 1.419 1.393 2.125 2.095Zm-24.308-14.683c-12.69-5.873-26.868-10.517-42.329-13.981 19.601 22.12 34.5 48.248 43.579 76.039a191.08 191.08 0 0 0 5.292-8.394c2.183-15.219 2.504-30.967.584-46.298a96.788 96.788 0 0 0-7.126-7.366Zm73.441 85.701c2.015 13.251 2.151 27.741.242 43.506a381.438 381.438 0 0 1-3.825 24.805 39.738 39.738 0 0 0 4.297-8.24c7.638-20.086 6.321-40.416-.714-60.071Zm-12.002 83.806c-7.466 5.382-16.364 9.237-25.649 11.97-11.624 3.42-24.069 5.148-35.549 5.877a171.397 171.397 0 0 1-11.421 24.472c-14.648 25.854-33.078 55.364-59.987 71.395-7.364 4.387-15.232 7.504-23.439 9.523 16.005 7.016 32.021 9.856 47.436 8.415 29.913-2.795 58.2-21.769 80.263-59.021 13.054-22.039 22.233-47.071 28.346-72.631Zm-64.777 13.039c5.601-15.928 8.699-32.443 9.509-49.072a119.752 119.752 0 0 1-2.388 3.229c-12.578 16.43-27.586 31.626-44.325 44.701 6.967.677 13.933 1.132 20.886 1.315 4.976.131 10.501.105 16.318-.173ZM305.008 212.144a43.287 43.287 0 0 0-8.31 8.912 95.201 95.201 0 0 1 11.903-.523 76.714 76.714 0 0 1 4.289-4.183 125.22 125.22 0 0 1 6.465-5.451c-4.789.318-9.572.735-14.347 1.245Zm14.284 5.254a125.128 125.128 0 0 0-3.053 2.665c-.318.287-.633.576-.945.868.438.044.877.091 1.316.141a156.32 156.32 0 0 1 2.682-3.674Zm-5.888 8.383a80.071 80.071 0 0 0-2.676-.173c-4.942 5.545-9.009 11.815-12.296 18.659a127.002 127.002 0 0 1 5.644-2.431 176.815 176.815 0 0 1 9.328-16.055Zm-2.276 13.459a165.816 165.816 0 0 1 7.849-12.804c6.084.938 12.191 2.624 18.391 5.198 1.179.49 2.351.988 3.517 1.494-10.519.92-20.378 2.976-29.757 6.112Zm-19.699 8.497c3.275-8.07 7.496-15.538 12.804-22.185-3.583.106-7.178.43-10.799.946-3.37 6.6-5.435 14.435-5.935 23.414a140.131 140.131 0 0 1 3.93-2.175Zm-9.04 5.252c.141-9.528 1.884-18.075 5.049-25.472-10.676 2.096-21.638 5.689-33.239 10.066-35.209 13.282-43.66 48.503-43.66 81.052 0 3.186-.03 6.604-.061 10.208-.171 19.812-.391 45.216 3.988 68.227 5.188 27.265 16.614 50.062 41.123 56.702 7.507 2.034 15.457 3.013 23.605 3.236a109.883 109.883 0 0 1-.878-3.74c-38.539-33.193-56.294-78.893-51.486-119.546 2.722-23.018 12.686-44.381 30.168-60.806 2.674-2.708 5.641-5.392 8.915-8.05 5.402-4.386 10.878-8.35 16.476-11.877Zm-44.965 58.04c-2.807 7.437-4.679 15.247-5.629 23.28-4.393 37.144 10.958 79.174 45.066 110.95-2.297-15.353-2.135-31.631-1.988-46.418.035-3.517.069-6.95.069-10.265 0-.896.002-1.79.007-2.684-15.664-15.467-28.882-32.653-34.663-50.559-2.575-7.974-3.682-16.115-2.862-24.304Zm37.61 67.849c.454-23.566 2.606-46.39 7.026-69.203-.32-10.82.133-21.509 1.56-31.764a226.767 226.767 0 0 1-1.162-16.938 103.164 103.164 0 0 0-13.899 8.756 95.577 95.577 0 0 0-8.079 6.776c-8.145 8.266-13.234 16.583-15.923 24.819-3.526 10.8-2.998 21.681.487 32.473 5.033 15.586 16.196 30.876 29.99 45.081Zm12.368-120.349.019.964c.106-.375.213-.749.322-1.121l-.341.157Zm6.386-2.735c-2.337 7.006-4.021 14.45-5.132 22.203.093.868.191 1.737.293 2.606a213.726 213.726 0 0 1 9.344-26.483 121.802 121.802 0 0 0-4.505 1.674Zm13.732-9.694.154-.307c12.107-4.657 24.989-7.376 39.111-8.052a450.76 450.76 0 0 1 3.72-.163 218.017 218.017 0 0 1 6.518 3.34c-18.467-.452-34.963 1.41-49.503 5.182Zm44.049-13.566a233.475 233.475 0 0 0-12.284-5.517c-5.773-2.398-11.465-4.065-17.113-5.111a137.066 137.066 0 0 1 9.505-11.61 338.6 338.6 0 0 1 21.543.008c15.78.511 30.961 2.066 45.653 4.787 14.964 6.461 29.171 14.89 42.431 24.683-29.431-6.566-60.45-8.315-89.735-7.24Zm83.833-3.036a226.776 226.776 0 0 0-15.723-9.675c2.438.662 4.862 1.36 7.275 2.094a175.303 175.303 0 0 1 8.448 7.581Zm-6.018-12.066c25.307 7.814 49.317 19.594 72.594 36.035a438.769 438.769 0 0 1 28.091 21.591c-3.156-12.402-7.984-24.249-14.706-34.991-24.434-39.049-60.844-58.216-106.315-61.961-23.07-1.9-42.857 4.556-59.417 16.25 16.657-5.287 34.627-4.831 52.547 4.696 9.425 5.011 18.582 11.22 27.206 18.38Zm-73.214-19.705c14.122-3.34 28.953-2.079 43.661 5.74 5.68 3.02 11.263 6.493 16.687 10.36a266.588 266.588 0 0 0-16.177-3.549c-14.086-6.034-28.858-10.382-44.171-12.551Zm-19.149 7.443a85.203 85.203 0 0 1 7.572-3.641c10.342.719 20.469 2.49 30.337 5.161a332.104 332.104 0 0 0-21.548-1.383 342.03 342.03 0 0 0-16.361-.137Zm-3.882-3.554a102.983 102.983 0 0 0-6.292 3.859 357.82 357.82 0 0 0-12.207.753c5.486-2.5 11.702-4.085 18.546-4.658a2.061 2.061 0 0 0-.047.046Zm44.345 45.743a203.18 203.18 0 0 1 3.411 2.339 86.16 86.16 0 0 1 4.038-1.331 209.482 209.482 0 0 0-7.449-1.008Z" clip-rule="evenodd"/><path fill="#72451B" fill-rule="evenodd" d="M430.46 428.734c20.006-5.817 36.442-17.519 41.596-36.752 2.573-9.603 1.67-21.576-1.945-34.557-3.599-12.923-9.795-26.51-17.399-39.144-7.604-12.632-16.544-24.192-25.548-33.095-9.09-8.988-17.897-14.92-25.188-16.874-14.857-3.981-35.45 2.491-54.212 15.887-18.625 13.298-34.315 32.647-39.668 52.625-5.208 19.439 2.41 40.438 15.951 58.038 13.539 17.596 32.337 30.899 47.857 35.058 15.868 4.252 38.556 4.629 58.556-1.186Zm-59.591 5.049c33.141 8.881 93.729 1.487 105.05-40.765 11.322-42.253-39.766-119.689-72.908-128.57-33.141-8.88-87.457 29.088-98.778 71.341-11.322 42.252 33.495 89.114 66.636 97.994Z" clip-rule="evenodd"/><path fill="#64401E" fill-rule="evenodd" d="M403.837 436.087c13.051-7.609 23.818-19.436 27.551-33.368 3.859-14.403 2.691-36.28-2.588-55.515-2.623-9.557-6.18-18.155-10.397-24.648-4.278-6.589-8.825-10.397-13.199-11.569-4.585-1.229-10.677-.435-17.834 2.566-7.071 2.964-14.654 7.868-21.886 14.022-14.587 12.41-26.821 29.09-30.629 43.302-3.808 14.211-1.55 31.155 4.701 45.407 6.325 14.419 16.12 24.779 26.195 27.479 10.485 2.809 24.952-.018 38.086-7.676Zm-39.38 12.506c24.376 6.531 63.433-13.502 71.761-44.579 8.327-31.078-5.344-91.325-29.72-97.857-24.376-6.531-68.145 32.348-76.472 63.426-8.328 31.077 10.054 72.478 34.431 79.01Z" clip-rule="evenodd"/><path fill="#64401E" fill-rule="evenodd" d="M407.78 433.52c16.229-6.998 29.295-18.063 32.873-31.417 3.746-13.978.199-34.883-7.703-53.518-3.904-9.205-8.743-17.54-13.954-23.886-5.291-6.445-10.56-10.349-15.195-11.591-5.014-1.343-11.718-1.159-19.366.631-7.581 1.774-15.739 5.045-23.473 9.473-15.678 8.974-28.566 22.061-32.235 35.755-3.765 14.048-.721 32.932 6.532 49.364 3.593 8.14 8.113 15.425 13.069 20.994 4.999 5.617 10.157 9.176 14.967 10.464 10.714 2.871 28.296.713 44.485-6.269Zm-45.779 11.099c24.376 6.532 75.155-10.144 83.482-41.222 8.327-31.077-16.011-88.587-40.388-95.118-24.376-6.532-72.871 18.316-81.198 49.394-8.327 31.077 13.728 80.414 38.104 86.946Z" clip-rule="evenodd"/><path fill="#64401E" fill-rule="evenodd" d="M410.462 439.24c17.266-4.134 30.507-12.404 33.924-25.156 4.101-15.307 8.465-38.78 3.594-60.888-4.769-21.646-18.425-42.314-51.365-52.806-4.25-1.093-10.606.155-18.649 4.289-7.901 4.06-16.563 10.461-24.874 18.142-16.793 15.518-31.035 35.198-34.838 49.39-3.609 13.47 1.536 28.686 11.217 41.791 9.681 13.105 23.035 22.896 33.824 25.787 11.292 3.026 30.163 3.522 47.167-.549ZM398.01 295.587c-24.376-6.532-76.259 44.252-84.586 75.33-8.327 31.077 24.201 67.17 48.577 73.702 24.376 6.531 78.887 1.837 87.214-29.24 8.327-31.078 18.469-97.682-51.205-119.792Z" clip-rule="evenodd"/><path fill="#64401E" fill-rule="evenodd" d="M368.909 437.61c20.682 5.541 45.168-11.341 53.091-40.909 3.938-14.698 3.854-31.638-.057-45.533-3.902-13.862-11.17-23.399-20.627-26.169-24.086-1.467-35.928 4.161-43.004 12.538-3.718 4.402-6.414 9.896-8.71 16.411-1.903 5.402-3.447 11.236-5.115 17.542-.36 1.36-.725 2.742-1.102 4.146-7.922 29.569 4.842 56.432 25.524 61.974Zm33.246-117.568c-48.406-3.13-54.776 20.954-62.52 50.238-.355 1.344-.714 2.698-1.079 4.062-8.327 31.077 4.683 61.566 29.059 68.097 24.376 6.532 50.887-13.367 59.214-44.444 8.328-31.078-.298-71.421-24.674-77.953Z" clip-rule="evenodd"/><path fill="#64401E" fill-rule="evenodd" d="m368.273 437.439.636.171c20.682 5.541 45.168-11.341 53.091-40.909.862-3.22 1.759-6.336 2.642-9.405 1.348-4.685 2.665-9.262 3.782-13.934 1.814-7.579 2.858-14.525 2.341-20.724-.505-6.064-2.494-11.35-6.803-15.87-4.391-4.607-11.559-8.804-23.101-11.896-9.799-2.626-21.91 1.91-33.201 11.952-11.132 9.903-20.381 24.28-24.275 38.812-4.154 15.505-6.78 31.432-3.918 43.23 1.388 5.722 4.002 10.195 8.155 13.298 4.189 3.13 10.49 5.275 19.993 5.275h.658Zm-.658 5c-40.946 0-37.386-37.02-29.059-68.097 8.327-31.078 39.223-60.832 63.599-54.3 43.655 11.698 35.384 40.48 27.237 68.833-.878 3.052-1.753 6.099-2.563 9.12-8.327 31.077-34.838 50.976-59.214 44.444Z" clip-rule="evenodd"/><path fill="#64401E" fill-rule="evenodd" d="M368.909 437.61c20.682 5.541 45.168-11.341 53.091-40.909 3.938-14.698 3.854-31.638-.057-45.533-3.965-14.084-11.403-23.703-21.082-26.296-9.799-2.626-21.91 1.91-33.201 11.952-11.132 9.903-20.381 24.28-24.275 38.812-7.922 29.569 4.842 56.432 25.524 61.974Zm-1.294 4.829c24.376 6.532 50.887-13.367 59.214-44.444 8.328-31.078-.298-71.421-24.674-77.953-24.376-6.532-55.272 23.222-63.599 54.3-8.327 31.077 4.683 61.566 29.059 68.097Z" clip-rule="evenodd"/><path fill="#64401E" fill-rule="evenodd" d="M360.306 469.715c33.425 8.956 71.77-18.328 84.046-64.142 6.114-22.821 5.992-49.095-.096-70.719-6.14-21.814-17.891-37.56-33.942-41.86-16.17-4.333-35.505 3.237-52.97 18.773-17.307 15.394-31.682 37.722-37.752 60.376-12.276 45.815 7.29 88.616 40.714 97.572Zm-1.294 4.83c37.119 9.946 77.489-20.355 90.169-67.678 12.681-47.324-.454-108.757-37.573-118.703-37.119-9.946-84.165 35.362-96.846 82.685-12.68 47.324 7.131 93.75 44.25 103.696Z" clip-rule="evenodd"/><path fill="#72451B" stroke="#72451B" stroke-width=".5" d="m501.865 671.97.004.003c.404.331.83.514 1.276.514.508 0 .952-.189 1.319-.556.381-.381.581-.832.581-1.345 0-1.883-1.388-3.852-4.006-5.909-2.589-2.028-5.858-3.996-9.803-5.905a79.157 79.157 0 0 0 2.481-1.693h.001c.91-.653 1.927-1.525 3.05-2.614v-.001c1.135-1.108 1.994-2.134 2.572-3.076.576-.94.881-1.813.881-2.612 0-.647-.153-1.196-.482-1.623-.326-.447-.814-.658-1.419-.658-.512 0-.964.2-1.344.581-.367.366-.556.81-.556 1.319 0 .327-.182.792-.615 1.412-.428.612-1.075 1.342-1.95 2.192-1.706 1.656-4.082 3.362-7.136 5.117l-.001.001c-.138.08-.263.158-.373.233.066-2.59.155-5.538.266-8.845.119-3.537.271-7.472.457-11.804V636.563c0-.567-.192-1.029-.604-1.34a2 2 0 0 0-1.271-.459 2.07 2.07 0 0 0-1.267.431c-.411.308-.614.767-.633 1.333-.592 13.863-.889 23.643-.889 29.336 0 2.669.067 4.457.206 5.343.075.521.286.937.66 1.207l.005.004c.359.245.746.374 1.157.374.481 0 .923-.156 1.319-.458.427-.325.632-.793.632-1.367 0-.1-.01-.206-.029-.318-.115-.775-.174-2.406-.174-4.912 0-1.455.021-3.15.065-5.085.075.044.15.081.223.11 5.199 2.262 9.409 4.664 12.637 7.202.735.585 1.275 1.119 1.629 1.602.355.485.51.899.51 1.249 0 .436.232.821.621 1.155ZM459.389 657.738l.062-.009v12.045c0 .512.2.964.581 1.345l.005.004c.382.363.832.551 1.34.551.509 0 .953-.189 1.319-.555l.005-.005c.363-.382.551-.832.551-1.34v-12.55c3.797-.456 6.623-.682 8.484-.682.629 0 1.152.025 1.571.074.35.041.617.098.808.166.117.418.317.758.612.998.326.265.742.387 1.224.387.513 0 .958-.201 1.324-.586.363-.382.551-.832.551-1.34 0-1.461-1.091-2.556-3.052-3.33-.473-.189-1.287-.272-2.403-.272-1.969 0-5.011.253-9.119.755v-7.741a1.81 1.81 0 0 0-.553-1.317c-.366-.384-.81-.584-1.322-.584s-.962.2-1.343.579c-.383.365-.583.81-.583 1.322v8.236c-.229.03-.621.079-1.177.149h-.001c-.796.101-1.948.254-3.455.457-1.651.219-3.078.328-4.283.328-.703 0-1.316-.036-1.838-.106l.43-.512c.448-.533 1.108-1.315 1.98-2.348a308.086 308.086 0 0 0 2.54-3.022 47.14 47.14 0 0 0 1.76-2.194 65.787 65.787 0 0 0 1.733-2.421l.001-.002 2.463-3.656v-.001c.225-.337.347-.689.347-1.053 0-.7-.475-1.316-1.278-1.857l-.001-.001a1.342 1.342 0 0 0-.748-.245c-.554 0-1.043.407-1.476 1.049h-.001l-2.487 3.63-.001.001a83.449 83.449 0 0 1-1.595 2.278v.001a32.913 32.913 0 0 1-1.436 1.839h-.001l-.002.003c-.506.624-1.156 1.401-1.951 2.331-.795.931-1.853 2.167-3.174 3.707-.42.49-.77 1.024-1.05 1.602l-.002.003a4.332 4.332 0 0 0-.404 1.859c0 .533.134.998.418 1.375.284.376.7.645 1.227.817l.001.001c1.016.327 2.149.567 3.397.721h.002c.3.035.649.052 1.045.052 1.133 0 2.77-.137 4.906-.408h.001c1.405-.186 2.47-.321 3.196-.406l.005-.001c.365-.05.647-.091.847-.121ZM438.96 671.927c.567-.586.856-1.282.856-2.077 0-.632-.153-1.316-.449-2.049a6.155 6.155 0 0 0-1.189-1.902c-.488-.558-1.041-.869-1.658-.869-.461 0-.878.222-1.248.611a5.339 5.339 0 0 0-.905 1.303c-.24.464-.403.865-.478 1.199a5.603 5.603 0 0 0-.159 1.301c0 .912.252 1.704.764 2.362.531.683 1.314 1.011 2.305 1.011.873 0 1.602-.294 2.161-.89ZM428.022 669.44l.002-.001c.342-.171.609-.407.789-.712.179-.304.263-.661.263-1.06 0-.527-.198-.975-.588-1.327a1.854 1.854 0 0 0-1.312-.523c-.294 0-.578.069-.848.204-3.789 1.869-7.093 2.792-9.918 2.792-2.11 0-3.842-.49-5.213-1.452-1.256-.894-2.135-2.102-2.636-3.635a.99.99 0 0 0 .054.001c7.065 0 12.497-1.256 16.263-3.801h.001c1.34-.91 2.38-1.905 3.113-2.986.758-1.111 1.135-2.388 1.135-3.822 0-.847-.168-1.652-.504-2.412v-.001c-.618-1.377-1.66-2.433-3.111-3.167-1.446-.749-3.119-1.12-5.014-1.12-4.913 0-8.899 1.509-11.933 4.542-2.341 2.342-3.712 5.161-4.108 8.45v.003a16.922 16.922 0 0 0-.103 1.83c0 1.326.18 2.53.546 3.609a11.71 11.71 0 0 0 1.556 3.035c1.191 1.691 2.63 2.908 4.32 3.64h.001c1.691.725 3.511 1.087 5.455 1.087 1.888 0 3.841-.292 5.859-.873a36.139 36.139 0 0 0 5.931-2.301Zm-19.407-9.514c-.133 0-.267.016-.401.047.21-1.932.835-3.598 1.872-5.006 1.124-1.521 2.588-2.688 4.395-3.5l.002-.001c1.809-.83 3.821-1.247 6.04-1.247 1.643 0 2.894.357 3.784 1.04l.002.002c.322.241.573.494.758.757l.006.007c.178.233.279.555.279.991 0 .762-.213 1.429-.637 2.01-.435.579-1.08 1.162-1.944 1.744h-.001c-3.088 2.092-7.793 3.156-14.155 3.156ZM395.732 667.096c-2.324 3.355-5.259 5.061-8.8 5.061-2.493 0-4.712-.551-6.65-1.658l-.001-.001c-1.918-1.106-3.431-2.636-4.536-4.587l-.001-.002c-1.089-1.972-1.631-4.232-1.631-6.774 0-1.924.327-3.798.98-5.619.652-1.835 1.537-3.427 2.658-4.773 1.842-2.224 4.223-3.34 7.124-3.34.309 0 .627.008.953.026h.006c3.194.25 6.414 2.034 9.658 5.297V647.659c0-1.423.009-3.015.026-4.776m.214 24.213.036-24.211-.25-.002m.214 24.213c.022.434.044.841.065 1.22.034.593.068 1.111.102 1.553.038.507.218.962.538 1.357a1.62 1.62 0 0 0 1.311.626c.741 0 1.307-.265 1.616-.841.294-.534.437-1.152.437-1.846 0-1.126-.06-2.419-.179-3.88a50.991 50.991 0 0 1-.177-4.068V660.878l-3.713 6.218Zm-.214-24.213.05-6.193m-.05 6.193.05-6.193m0 0v-.001m0 .001v-.001m0 0c.001-.583.192-1.06.602-1.388l.005-.003a2.096 2.096 0 0 1 1.294-.458c.481 0 .917.156 1.299.461.412.33.601.817.601 1.414v.002l-.051 6.221a3980.29 3980.29 0 0 1-.05 6.245V654.159c0 1.824.008 3.283.024 4.377.107.35.153.906.153 1.64V660.684l-3.877-23.995Zm-.618 23.525-.001.004.235.085-.234-.089ZM361.335 658.476a74.312 74.312 0 0 1-4.305 3.872m4.305-3.872-4.466 3.681m4.466-3.681c1.363-1.329 2.475-2.628 3.333-3.898.863-1.277 1.312-2.476 1.312-3.593 0-1.28-.334-2.341-1.023-3.158-.683-.808-1.62-1.356-2.795-1.655a19.09 19.09 0 0 0-2.673-.513 19.84 19.84 0 0 0-2.62-.155c-.478 0-1.175.017-2.089.051-.899.017-1.856.051-2.872.102-1.016.034-1.938.068-2.768.102a49.93 49.93 0 0 1-1.665.05H347.068c-.618 0-1.149.155-1.574.483-.43.329-.631.817-.631 1.417 0 .678.251 1.204.786 1.512h-.001l.01.005c.502.261 1.112.384 1.817.384.274 0 .767-.009 1.478-.026h.006c.71-.034 1.522-.067 2.435-.101s1.792-.059 2.636-.076h.005a55.508 55.508 0 0 1 2.098-.051c1.678 0 3.011.08 4.004.238.496.079.902.176 1.22.29.318.114.535.239.67.366.076.078.127.194.127.379 0 .208-.079.504-.268.903-.186.393-.47.864-.854 1.416l.303 5.528Zm-4.305 3.872-.001.001-.16-.192m.161.191-.161-.191m.161.191a229.746 229.746 0 0 1-4.321 3.558 86.48 86.48 0 0 0-2.894 2.415m7.054-6.164a233.202 233.202 0 0 1-4.316 3.554 82.904 82.904 0 0 0-3.106 2.601l.368.009m0 0a24.77 24.77 0 0 0-.275.243l-.364-.009 17.367.153m-16.728-.387c5.843.142 10.217.213 13.123.213 1.649 0 2.825-.024 3.533-.072m0 0-.051.028.123.218m-.072-.246.054-.004.018.25m-.072-.246c.287-.152.583-.233.884-.233.483 0 .948.261 1.392.704m-2.204-.225a1.64 1.64 0 0 1 .812-.229c.39 0 .796.212 1.219.635m.173-.181-.003-.003-.17.184m.173-.181.004.004-.177.177m.173-.181-.173.181m.26 2.453h.001l-.159-.193.158.193Zm-9.408.894h.001l.007-.25-.009.25h.001Zm-10.916-.38h.002l.004-.25-.008.249.002.001Zm-.358-7.323.16.192-.16-.192Zm3.328-2.744-.001.001.16.193-.158-.194h-.001Zm5.681-4.768-.001.001.166.187-.164-.188h-.001ZM333.301 639.244l-.001.002c-.396.612-.599 1.259-.599 1.938 0 .785.249 1.471.747 2.043l.006.007c.515.552 1.13.841 1.833.841.624 0 1.319-.2 2.079-.579a3.532 3.532 0 0 0 1.677-1.224 3.086 3.086 0 0 0 .633-1.875c0-.735-.312-1.449-.895-2.139-.584-.729-1.321-1.107-2.199-1.107-.601 0-1.198.207-1.787.599a5.007 5.007 0 0 0-1.494 1.494Zm3.437 31.995v-.002c.336-.849.525-1.963.576-3.331.119-2.542.187-4.931.204-7.168.033-2.236.05-4.734.05-7.493 0-.831-.008-1.678-.025-2.542 0-.863-.009-1.743-.025-2.64-.001-.579-.19-1.05-.603-1.362a1.897 1.897 0 0 0-1.247-.46c-.481 0-.923.155-1.32.457l-.004.004c-.413.33-.602.817-.602 1.414v.003c.017 1.319.026 2.698.026 4.135V655.403c0 1.318-.017 2.747-.051 4.285v.003a182.517 182.517 0 0 1-.102 4.437 63.287 63.287 0 0 1-.227 3.743v.004c-.085 1.054-.203 1.716-.337 2.029l-.003.009a2.072 2.072 0 0 0-.144.75c0 .541.197 1.005.586 1.374.382.363.832.551 1.34.551.441 0 .833-.111 1.161-.344.327-.233.572-.574.747-1.005ZM305.748 652.562c-.566-2.753-1.424-4.847-2.59-6.256-.368-.445-.844-.675-1.412-.675-.488 0-.933.178-1.328.515-.417.339-.623.802-.623 1.36 0 .474.244.977.664 1.502l.001.002c.195.24.415.655.653 1.266.237.607.486 1.389.747 2.349l.001.001c.532 1.912.836 4.798.904 8.675-.338 2.108-.507 4.408-.507 6.899 0 .731.017 1.479.051 2.244.019.566.222 1.024.633 1.333l.004.003a2.18 2.18 0 0 0 1.288.428c.426 0 .821-.127 1.183-.374l.007-.005c.389-.287.602-.712.659-1.241v-.001l.101-.991c.255-2.479.382-4.942.382-7.388V661.569a26.066 26.066 0 0 1 1.53-5.259c.718-1.734 1.658-3.205 2.819-4.416 1.146-1.195 2.525-1.905 4.143-2.134a9.454 9.454 0 0 1 1.161-.074c1.397 0 2.619.336 3.675 1.003l.004.002a8.08 8.08 0 0 1 2.661 2.612l.001.002a10.268 10.268 0 0 1 1.463 3.545c.182.88.274 1.785.274 2.717 0 3.109-1.031 6.476-3.114 10.106-.203.342-.311.687-.301 1.029.01.345.14.665.372.955l.006.007c.458.532.997.823 1.611.823.712 0 1.262-.307 1.613-.912v-.001c2.403-4.191 3.614-8.187 3.614-11.982 0-1.201-.12-2.377-.361-3.529a14.19 14.19 0 0 0-2.067-5.012 11.96 11.96 0 0 0-3.915-3.759c-1.6-.957-3.44-1.432-5.511-1.432-.571 0-1.15.043-1.737.129-3.561.514-6.478 2.725-8.759 6.573ZM291.864 639.987l-.004-.003c-1.763-1.608-4.197-2.85-7.284-3.737-3.089-.905-6.379-1.356-9.871-1.356-1.7 0-3.375.11-5.025.331a.288.288 0 0 0-.098.025h-.005l-.025.005c-6.408 1.295-11.078 4.021-13.969 8.202v.001c-.978 1.424-1.693 2.886-2.141 4.386a15.606 15.606 0 0 0-.671 4.49c0 2.559.55 5.04 1.648 7.441v.001c1.094 2.376 2.488 4.472 4.183 6.287 3.118 3.357 7.066 5.556 11.835 6.599 1.728.376 3.497.564 5.309.564 1.948 0 3.954-.213 6.017-.64h.001l.01-.002c2.841-.719 5.41-1.935 7.706-3.648 3.781-2.823 5.711-6.038 5.711-9.645 0-2.543-.798-4.457-2.436-5.685-1.22-.907-2.77-1.562-4.64-1.974-1.849-.41-3.882-.615-6.097-.615a56.1 56.1 0 0 0-3.29.102 76.545 76.545 0 0 0-3.236.255c-.999.102-1.791.195-2.371.28l-.001.001-1.066.152c-.526.075-.943.298-1.212.69l-.001.003c-.23.344-.347.722-.347 1.128 0 .481.155.93.454 1.341l.008.01c.339.419.802.626 1.362.626.113 0 .22-.009.322-.029l1.059-.151.004-.001a35.866 35.866 0 0 1 2.268-.252v.001l.004-.001a54.12 54.12 0 0 1 3.134-.227l.004-.001a51.574 51.574 0 0 1 3.082-.101c1.903 0 3.447.144 4.64.425.992.236 1.829.479 2.511.728l.002.001c.671.239 1.167.601 1.505 1.077l.005.007c.342.446.533 1.135.533 2.108 0 .961-.212 1.889-.637 2.788v.001c-.473 1.011-1.236 1.983-2.299 2.914l-.002.001a17.88 17.88 0 0 1-3.581 2.454h-.001a17.683 17.683 0 0 1-3.951 1.552c-1.76.368-3.476.552-5.149.552-3.117 0-5.89-.57-8.324-1.703-2.446-1.14-4.467-2.569-6.067-4.286-1.369-1.47-2.515-3.174-3.435-5.116-.916-1.949-1.373-3.952-1.373-6.012 0-1.127.166-2.254.498-3.383v-.001c.33-1.139.868-2.249 1.616-3.329 2.286-3.298 6.126-5.515 11.567-6.625a33.314 33.314 0 0 1 4.503-.301c2.976 0 5.789.361 8.44 1.083 2.669.722 4.693 1.731 6.092 3.015l.001.001c.306.279.639.456.996.507.359.051.717-.028 1.068-.218l.002-.001c.712-.394 1.094-.98 1.094-1.743 0-.527-.198-.981-.585-1.349Zm-.807 16.939c-.373-.524-.914-.914-1.625-1.168l-8.455 13.381a17.878 17.878 0 0 0 4.011-1.574 18.086 18.086 0 0 0 3.631-2.488c1.083-.948 1.871-1.947 2.361-2.996a6.687 6.687 0 0 0 .661-2.895c0-.999-.195-1.752-.584-2.26Z"/><path fill="#BB8450" fill-rule="evenodd" d="M523.292 669.674c4.632 1.241 10.667-2.54 12.678-10.046.994-3.71.97-7.998-.011-11.483-1.008-3.579-2.795-5.644-4.78-6.176-2.045-.548-4.865.36-7.744 2.921-2.8 2.491-5.128 6.118-6.1 9.745-2.011 7.506 1.324 13.798 5.957 15.039Zm-.647 2.415c6.479 1.736 13.526-3.553 15.74-11.814 2.213-8.261-.079-18.985-6.559-20.721-6.479-1.736-14.692 6.173-16.905 14.434-2.214 8.26 1.244 16.365 7.724 18.101Z" clip-rule="evenodd"/><path fill="#72451B" fill-rule="evenodd" d="M523.806 670.463c6.83 1.83 14.184-2.564 16.223-10.175 1.038-3.875.798-8.448-.622-12.262-1.426-3.827-3.887-6.54-7.03-7.382-3.186-.854-6.974.235-10.406 2.8-3.411 2.549-6.113 6.307-7.128 10.095-2.039 7.611 2.132 15.093 8.963 16.924Zm-.57 2.125c8.129 2.178 16.598-3.074 18.918-11.731 2.319-8.656-1.079-20.161-9.207-22.339-8.129-2.178-17.909 5.795-20.229 14.452-2.319 8.656 2.39 17.44 10.518 19.618Z" clip-rule="evenodd"/><path fill="#72451B" fill-rule="evenodd" d="M535.557 667.529c3.84-1.117 6.994-3.363 7.984-7.054.493-1.844.32-4.142-.374-6.633-.691-2.481-1.88-5.089-3.339-7.514-1.46-2.425-3.176-4.643-4.904-6.352-1.745-1.725-3.435-2.864-4.835-3.239-2.851-.764-6.804.478-10.405 3.049-3.575 2.553-6.587 6.267-7.614 10.101-1 3.732.462 7.762 3.061 11.14 2.599 3.378 6.207 5.931 9.186 6.729 3.046.816 7.401.889 11.24-.227Zm-11.439.969c6.362 1.704 17.991.285 20.164-7.825 2.173-8.11-7.633-22.973-13.994-24.678-6.361-1.704-16.787 5.583-18.96 13.694-2.173 8.11 6.429 17.104 12.79 18.809Z" clip-rule="evenodd"/><path fill="#72451B" fill-rule="evenodd" d="M535.305 666.665c3.683-1.071 6.491-3.157 7.366-6.423.436-1.628.301-3.748-.371-6.159-.664-2.387-1.816-4.92-3.243-7.291-1.427-2.37-3.098-4.527-4.766-6.176-1.703-1.685-3.259-2.695-4.435-3.01-2.466-.661-6.133.402-9.649 2.913-3.46 2.47-6.309 6.025-7.268 9.601-.898 3.352.395 7.095 2.906 10.358 2.51 3.263 5.963 5.674 8.705 6.409 2.888.774 7.075.848 10.755-.222Zm.717 2.465c-4.132 1.202-8.798 1.132-12.136.237-3.417-.915-7.314-3.732-10.076-7.323-2.762-3.589-4.539-8.154-3.351-12.588 1.156-4.314 4.467-8.322 8.256-11.027 3.757-2.683 8.24-4.259 11.806-3.303 1.814.486 3.755 1.863 5.576 3.664 1.84 1.82 3.639 4.152 5.16 6.678 1.52 2.526 2.778 5.272 3.517 7.926.736 2.641.979 5.269.378 7.512-1.201 4.481-4.998 7.023-9.13 8.224Zm7.519-8.655c-.989 3.691-4.144 5.937-7.984 7.054-3.839 1.116-8.194 1.043-11.24.227-2.979-.798-6.587-3.351-9.185-6.729-2.6-3.378-4.062-7.409-3.062-11.14 1.027-3.834 4.039-7.548 7.614-10.101 3.601-2.571 7.554-3.813 10.405-3.049 1.4.375 3.09 1.514 4.835 3.239 1.728 1.709 3.444 3.927 4.904 6.352 1.459 2.425 2.649 5.033 3.339 7.514.694 2.491.868 4.789.374 6.633Zm-7.77 7.791c-3.974 1.156-8.472 1.084-11.652.232-3.181-.852-6.922-3.527-9.596-7.003-2.674-3.475-4.281-7.751-3.195-11.806 1.087-4.056 4.236-7.905 7.91-10.528 3.673-2.622 7.87-4.018 11.05-3.166 1.59.426 3.396 1.675 5.176 3.435 1.78 1.76 3.534 4.031 5.022 6.502 1.487 2.471 2.708 5.143 3.421 7.704.713 2.56.919 5.01.375 7.037-1.086 4.055-4.537 6.438-8.511 7.593Z" clip-rule="evenodd"/></svg>