<?xml version="1.0" encoding="UTF-8"?>
<svg version="1.1" xmlns="http://www.w3.org/2000/svg" width="300" height="300">
<path d="M0 0 C0.74917694 0.00182281 1.49835388 0.00364563 2.27023315 0.00552368 C13.53862568 0.05166312 24.34576491 0.56804965 35.3125 3.3125 C35.99940918 3.47878906 36.68631836 3.64507812 37.39404297 3.81640625 C60.71393141 9.580993 80.95885524 21.05209814 99.3125 36.3125 C100.50359375 37.28896484 100.50359375 37.28896484 101.71875 38.28515625 C106.41033362 42.2459355 110.42086383 46.57149879 114.3125 51.3125 C115.56546875 52.80910156 115.56546875 52.80910156 116.84375 54.3359375 C139.35248514 81.70405757 150.80370451 114.63951752 150.625 150 C150.62226578 151.12376541 150.62226578 151.12376541 150.61947632 152.27023315 C150.57333098 163.54006686 150.05195093 174.3436054 147.3125 185.3125 C147.15152832 185.98877441 146.99055664 186.66504883 146.82470703 187.36181641 C140.93508794 211.63881498 128.76768616 232.75934079 112.3125 251.3125 C111.43966048 252.36597174 110.56983836 253.42195115 109.703125 254.48046875 C106.54814273 258.2179886 103.07588598 261.20413373 99.3125 264.3125 C97.81203125 265.56933594 97.81203125 265.56933594 96.28125 266.8515625 C68.91008446 289.35281426 35.98434281 300.80369875 0.625 300.625 C-0.49876541 300.62226578 -0.49876541 300.62226578 -1.64523315 300.61947632 C-12.91362568 300.57333688 -23.72076491 300.05695035 -34.6875 297.3125 C-35.37440918 297.14621094 -36.06131836 296.97992188 -36.76904297 296.80859375 C-60.08893141 291.044007 -80.33385524 279.57290186 -98.6875 264.3125 C-99.4815625 263.66152344 -100.275625 263.01054687 -101.09375 262.33984375 C-105.78533362 258.3790645 -109.79586383 254.05350121 -113.6875 249.3125 C-114.5228125 248.31476563 -115.358125 247.31703125 -116.21875 246.2890625 C-138.72748514 218.92094243 -150.17870451 185.98548248 -150 150.625 C-149.99817719 149.87582306 -149.99635437 149.12664612 -149.99447632 148.35476685 C-149.94833098 137.08493314 -149.42695093 126.2813946 -146.6875 115.3125 C-146.52652832 114.63622559 -146.36555664 113.95995117 -146.19970703 113.26318359 C-140.31008794 88.98618502 -128.14268616 67.86565921 -111.6875 49.3125 C-110.81466048 48.25902826 -109.94483836 47.20304885 -109.078125 46.14453125 C-105.92314273 42.4070114 -102.45088598 39.42086627 -98.6875 36.3125 C-97.6871875 35.47460938 -96.686875 34.63671875 -95.65625 33.7734375 C-68.28508446 11.27218574 -35.35934281 -0.17869875 0 0 Z " fill="#E31E24" transform="translate(149.6875,-0.3125)"/>
<path d="M0 0 C3.39580805 0.79136242 5.21078042 2.75339335 7.61949348 5.19329834 C8.12784737 5.69727142 8.63620125 6.20124451 9.15995979 6.7204895 C10.82459541 8.38052546 12.45896628 10.06722833 14.09410286 11.75628662 C15.24691127 12.91894733 16.40135639 14.07998728 17.5573597 15.23947144 C19.96997338 17.66733502 22.3690993 20.10749708 24.75816536 22.55853271 C27.82571836 25.70549994 30.91466918 28.83029887 34.01247597 31.94746208 C36.96348506 34.91837505 39.90445777 37.89913512 42.84410286 40.88128662 C43.40777061 41.45174587 43.97143837 42.02220512 44.55218697 42.60995102 C46.13749451 44.21832243 47.71557519 45.83342351 49.29136848 47.45111084 C50.19101326 48.37044403 51.09065804 49.28977722 52.01756477 50.23696899 C53.93785286 52.45159912 53.93785286 52.45159912 53.93785286 54.45159912 C52.65152962 54.46561768 52.65152962 54.46561768 51.33922005 54.47991943 C48.14812607 54.52401204 44.9579853 54.58565968 41.7674427 54.65911865 C40.38833635 54.68729011 39.00906968 54.70852384 37.62974739 54.72259521 C35.64362337 54.74407457 33.65785377 54.79283044 31.67222786 54.84222412 C30.47823372 54.86317139 29.28423958 54.88411865 28.0540638 54.90570068 C24.93045182 55.25891777 24.93045182 55.25891777 22.54844856 56.89764404 C20.09256181 60.7919947 20.39237024 64.40895973 20.43394661 68.92425537 C20.42452538 69.84371445 20.41510414 70.76317352 20.40539742 71.710495 C20.37673073 74.64525688 20.37367042 77.57920844 20.37535286 80.51409912 C20.37174989 83.4524418 20.36227787 86.39019581 20.33459663 89.32841492 C20.31775643 91.15578225 20.31497299 92.98334399 20.32760811 94.81074524 C20.32072472 95.63847946 20.31384132 96.46621368 20.30674934 97.31903076 C20.30771111 98.0464296 20.30867287 98.77382843 20.30966377 99.52326965 C19.82136217 102.0557568 18.99731029 102.92981891 16.93785286 104.45159912 C14.03161568 104.74995379 11.34415983 104.8719254 8.43785286 104.85003662 C7.18971809 104.85434189 7.18971809 104.85434189 5.91636848 104.85873413 C4.15789802 104.86077474 2.39940485 104.85524505 0.64097786 104.8427124 C-2.05224627 104.82665814 -4.74396974 104.84256058 -7.43714714 104.86175537 C-9.14548379 104.85977294 -10.8538195 104.85592926 -12.56214714 104.85003662 C-13.36845573 104.85610931 -14.17476433 104.86218201 -15.00550652 104.86843872 C-20.59344334 104.79806489 -20.59344334 104.79806489 -22.77343559 103.18661499 C-24.35446923 101.05804056 -24.44450596 99.9357689 -24.46278191 97.30316162 C-24.48279007 96.05671875 -24.48279007 96.05671875 -24.50320244 94.78509521 C-24.50331825 93.8912915 -24.50343407 92.99748779 -24.50355339 92.07659912 C-24.51676125 91.1557251 -24.5299691 90.23485107 -24.54357719 89.28607178 C-24.58451435 86.34121683 -24.60615637 83.39667449 -24.62464714 80.45159912 C-24.64842022 77.50661897 -24.67652152 74.56193398 -24.71642876 71.61712646 C-24.74081335 69.78422321 -24.75564946 67.95116323 -24.76003838 66.11810303 C-24.77022499 65.28714111 -24.78041161 64.4561792 -24.79090691 63.60003662 C-24.79731949 62.50441406 -24.79731949 62.50441406 -24.80386162 61.38665771 C-24.96116883 59.1266807 -24.96116883 59.1266807 -27.06214714 56.45159912 C-29.53705828 56.11345164 -31.77566402 55.96287573 -34.25745964 55.93988037 C-34.96490318 55.92192917 -35.67234673 55.90397797 -36.40122795 55.88548279 C-38.66314017 55.8312547 -40.92483998 55.79744596 -43.18714714 55.76409912 C-44.71972887 55.73093686 -46.25228252 55.69644822 -47.78480339 55.6605835 C-51.54376494 55.57552185 -55.30266214 55.5087716 -59.06214714 55.45159912 C-57.48617414 51.67763252 -55.12420024 49.22345876 -52.28040886 46.31585693 C-51.79553505 45.81784073 -51.31066124 45.31982452 -50.81109428 44.80671692 C-49.2105344 43.16685585 -47.60214025 41.53501339 -45.99183464 39.90472412 C-45.44099331 39.34573174 -44.89015198 38.78673935 -44.32261848 38.2108078 C-41.40811702 35.25466188 -38.48715969 32.30506434 -35.56117058 29.36029053 C-32.5445689 26.32153411 -29.55204616 23.26016348 -26.56429672 20.19307327 C-24.25783452 17.83428394 -21.93373978 15.49347716 -19.60457039 13.15712738 C-18.49346426 12.03629298 -17.38911126 10.90872091 -16.29184914 9.77433014 C-14.75296479 8.18664693 -13.19061267 6.62623628 -11.62025261 5.06976318 C-10.73804039 4.17581848 -9.85582817 3.28187378 -8.94688225 2.36083984 C-5.67805671 0.19739169 -3.84580148 -0.24784209 0 0 Z " fill="#FDFBFB" transform="translate(152.06214714050293,19.54840087890625)"/>
<path d="M0 0 C0.83208984 -0.00287018 1.66417969 -0.00574036 2.52148438 -0.00869751 C4.27995484 -0.01073812 6.03844801 -0.00520843 7.796875 0.00732422 C10.49009913 0.02337848 13.1818226 0.00747605 15.875 -0.01171875 C17.58333665 -0.00973632 19.29167236 -0.00589264 21 0 C21.80630859 -0.00607269 22.61261719 -0.01214539 23.44335938 -0.0184021 C29.03111748 0.05196948 29.03111748 0.05196948 31.21327209 1.66441345 C32.7936776 3.79420417 32.87237714 4.89851997 32.86889648 7.53100586 C32.87577988 8.35874008 32.88266327 9.1864743 32.88975525 10.03929138 C32.88359695 10.92995804 32.87743866 11.82062469 32.87109375 12.73828125 C32.88847493 14.62435078 32.90605932 16.51041845 32.92382812 18.39648438 C32.93390808 21.37007053 32.93749564 24.34353613 32.93579102 27.31713867 C32.9393579 30.18705295 32.96668888 33.05603294 32.99609375 35.92578125 C32.98791122 36.81442368 32.9797287 37.7030661 32.97129822 38.61863708 C33.01694909 42.39826829 33.0658464 44.70999112 35.1105957 47.95239258 C38.27744745 49.86894136 40.54061493 49.94300969 44.234375 50.0078125 C45.52988281 50.04003906 46.82539063 50.07226562 48.16015625 50.10546875 C49.52343302 50.12021219 50.88671445 50.13452972 52.25 50.1484375 C53.62894376 50.17660564 55.00785275 50.20653428 56.38671875 50.23828125 C59.75787216 50.30900475 63.1283328 50.36169254 66.5 50.3984375 C59.00668469 59.40923861 50.66216851 67.63868709 42.42874336 75.9663229 C39.74965449 78.67608438 37.07916086 81.39325446 34.42724609 84.12963867 C31.8444234 86.79445581 29.24244112 89.43907138 26.62575912 92.07063484 C25.63729218 93.07131722 24.65571287 94.07885437 23.68146133 95.09338188 C22.31858633 96.50980324 20.9275756 97.89898713 19.53564453 99.28686523 C18.75432159 100.08293686 17.97299866 100.87900848 17.16799927 101.69920349 C14.19797804 103.59079362 11.9786891 104.03526498 8.45622063 103.83320522 C5.03648786 103.07317366 3.23213108 101.09393399 0.81835938 98.64086914 C0.31000549 98.13528976 -0.19834839 97.62971039 -0.72210693 97.10881042 C-2.38662632 95.4438185 -4.02096891 93.75226951 -5.65625 92.05859375 C-6.8089843 90.89346737 -7.9634305 89.73003242 -9.11950684 88.56822205 C-12.14940814 85.51351346 -15.15409857 82.43511204 -18.15454102 79.35150146 C-20.61628175 76.82959316 -23.09488361 74.32463747 -25.57462311 71.82044315 C-30.6851334 66.65939452 -35.78472701 61.48745046 -40.85351562 56.28540039 C-41.7531604 55.36384659 -42.65280518 54.44229279 -43.57971191 53.49281311 C-45.5 51.3984375 -45.5 51.3984375 -45.5 50.3984375 C-44.21367676 50.38441895 -44.21367676 50.38441895 -42.90136719 50.37011719 C-39.71027321 50.32602459 -36.52013244 50.26437694 -33.32958984 50.19091797 C-31.95048349 50.16274651 -30.57121682 50.14151278 -29.19189453 50.12744141 C-27.20577051 50.10596205 -25.22000091 50.05720618 -23.234375 50.0078125 C-22.04038086 49.98686523 -20.84638672 49.96591797 -19.61621094 49.94433594 C-16.49259896 49.59111885 -16.49259896 49.59111885 -14.1105957 47.95239258 C-11.65470895 44.05804192 -11.95451738 40.44107689 -11.99609375 35.92578125 C-11.98667252 35.00632217 -11.97725128 34.0868631 -11.96754456 33.13954163 C-11.93887787 30.20477974 -11.93581756 27.27082818 -11.9375 24.3359375 C-11.93389703 21.39759482 -11.92442501 18.45984081 -11.89674377 15.5216217 C-11.87990357 13.69425437 -11.87712013 11.86669263 -11.88975525 10.03929138 C-11.88287186 9.21155716 -11.87598846 8.38382294 -11.86889648 7.53100586 C-11.86985825 6.80360703 -11.87082001 6.07620819 -11.87181091 5.32676697 C-10.68848151 -0.81035512 -5.07982971 -0.03825861 0 0 Z " fill="#FDFCFC" transform="translate(139.5,176.6015625)"/>
<path d="M0 0 C4.14690644 3.55449123 8.12526197 6.99115468 12.01733398 10.77685547 C12.93775986 11.67153534 13.85818573 12.56621521 14.8065033 13.48800659 C18.40317207 17.00604925 21.99013286 20.53397926 25.5678854 24.07125664 C28.27764688 26.75034551 30.99481696 29.42083914 33.73120117 32.07275391 C36.39601831 34.6555766 39.04063388 37.25755888 41.67219734 39.87424088 C42.67287972 40.86270782 43.68041687 41.84428713 44.69494438 42.81853867 C46.11136574 44.18141367 47.50054963 45.5724244 48.88842773 46.96435547 C49.68449936 47.74567841 50.48057098 48.52700134 51.30076599 49.33200073 C53.19235612 52.30202196 53.63682748 54.5213109 53.43476772 58.04377937 C52.67473616 61.46351214 50.69549649 63.26786892 48.24243164 65.68164062 C47.73685226 66.18999451 47.23127289 66.69834839 46.71037292 67.22210693 C45.045381 68.88662632 43.35383201 70.52096891 41.66015625 72.15625 C40.49502987 73.3089843 39.33159492 74.4634305 38.16978455 75.61950684 C35.11507596 78.64940814 32.03667454 81.65409857 28.95306396 84.65454102 C26.43115566 87.11628175 23.92619997 89.59488361 21.42200565 92.07462311 C16.26095702 97.1851334 11.08901296 102.28472701 5.88696289 107.35351562 C4.96540909 108.2531604 4.04385529 109.15280518 3.09437561 110.07971191 C1 112 1 112 0 112 C0 75.04 0 38.08 0 0 Z " fill="#FDFBFB" transform="translate(227,94)"/>
<path d="M0 0 C0 36.96 0 73.92 0 112 C-4.14690644 108.44550877 -8.12526197 105.00884532 -12.01733398 101.22314453 C-12.93775986 100.32846466 -13.85818573 99.43378479 -14.8065033 98.51199341 C-18.40317207 94.99395075 -21.99013286 91.46602074 -25.5678854 87.92874336 C-28.27764688 85.24965449 -30.99481696 82.57916086 -33.73120117 79.92724609 C-36.39601831 77.3444234 -39.04063388 74.74244112 -41.67219734 72.12575912 C-42.67287972 71.13729218 -43.68041687 70.15571287 -44.69494438 69.18146133 C-46.11136574 67.81858633 -47.50054963 66.4275756 -48.88842773 65.03564453 C-49.68449936 64.25432159 -50.48057098 63.47299866 -51.30076599 62.66799927 C-53.19235612 59.69797804 -53.63682748 57.4786891 -53.43476772 53.95622063 C-52.67473616 50.53648786 -50.69549649 48.73213108 -48.24243164 46.31835938 C-47.48406258 45.55582855 -47.48406258 45.55582855 -46.71037292 44.77789307 C-45.045381 43.11337368 -43.35383201 41.47903109 -41.66015625 39.84375 C-40.49502987 38.6910157 -39.33159492 37.5365695 -38.16978455 36.38049316 C-35.11507596 33.35059186 -32.03667454 30.34590143 -28.95306396 27.34545898 C-26.43115566 24.88371825 -23.92619997 22.40511639 -21.42200565 19.92537689 C-16.26095702 14.8148666 -11.08901296 9.71527299 -5.88696289 4.64648438 C-4.96540909 3.7468396 -4.04385529 2.84719482 -3.09437561 1.92028809 C-1 0 -1 0 0 0 Z " fill="#FDFBFB" transform="translate(73,94)"/>
</svg>
