<?xml version="1.0" encoding="UTF-8"?>
<svg xmlns="http://www.w3.org/2000/svg" xmlns:xlink="http://www.w3.org/1999/xlink" width="200px" height="291px" viewBox="0 0 200 291" version="1.1">
<g id="surface1">
<path style=" stroke:none;fill-rule:nonzero;fill:rgb(98.039216%,73.725492%,14.509805%);fill-opacity:1;" d="M 103.925781 -0.015625 C 104.117188 -0.0195312 104.308594 -0.0195312 104.5 -0.0195312 C 104.902344 -0.0195312 105.300781 -0.0195312 105.703125 -0.0195312 C 106.101562 -0.0195312 106.503906 -0.0195312 106.90625 -0.0195312 C 110.226562 -0.03125 113.511719 0.0625 116.808594 0.4375 C 116.910156 0.445312 117.007812 0.457031 117.109375 0.46875 C 120.710938 0.871094 124.277344 1.476562 127.8125 2.289062 C 127.890625 2.308594 127.964844 2.324219 128.046875 2.34375 C 135.023438 3.949219 141.703125 6.429688 148.125 9.578125 C 148.207031 9.617188 148.289062 9.660156 148.375 9.699219 C 148.847656 9.933594 149.320312 10.171875 149.792969 10.410156 C 149.910156 10.472656 149.910156 10.472656 150.03125 10.535156 C 152.855469 11.972656 155.621094 13.585938 158.238281 15.375 C 158.460938 15.527344 158.683594 15.679688 158.90625 15.832031 C 160.523438 16.925781 162.109375 18.058594 163.644531 19.261719 C 163.761719 19.351562 163.875 19.441406 163.992188 19.527344 C 165.859375 20.980469 167.675781 22.503906 169.414062 24.109375 C 169.644531 24.324219 169.882812 24.535156 170.125 24.738281 C 170.511719 25.074219 170.867188 25.4375 171.230469 25.800781 C 171.429688 26 171.632812 26.183594 171.847656 26.367188 C 172.691406 27.089844 173.476562 27.894531 174.195312 28.738281 C 174.417969 28.992188 174.65625 29.226562 174.894531 29.464844 C 175.265625 29.828125 175.617188 30.203125 175.953125 30.597656 C 176.183594 30.859375 176.417969 31.113281 176.652344 31.371094 C 177.078125 31.835938 177.480469 32.3125 177.875 32.804688 C 178.101562 33.078125 178.332031 33.347656 178.566406 33.617188 C 179.265625 34.421875 179.917969 35.257812 180.558594 36.109375 C 180.726562 36.335938 180.898438 36.558594 181.070312 36.78125 C 183.730469 40.214844 186.113281 43.890625 188.230469 47.683594 C 188.28125 47.773438 188.332031 47.867188 188.382812 47.960938 C 190.066406 50.972656 191.609375 54.070312 192.917969 57.261719 C 192.957031 57.363281 192.957031 57.363281 193 57.464844 C 196.226562 65.328125 198.417969 73.550781 199.558594 83.234375 C 199.566406 83.328125 199.578125 83.421875 199.589844 83.515625 C 199.9375 86.65625 200.039062 89.78125 200.03125 92.9375 C 200.03125 93.226562 200.03125 93.515625 200.03125 93.808594 C 200.027344 96.476562 200.003906 99.132812 199.714844 101.789062 C 199.6875 102.046875 199.660156 102.304688 199.636719 102.5625 C 198.796875 111.027344 196.816406 119.433594 193.644531 127.332031 C 193.597656 127.457031 193.546875 127.582031 193.496094 127.707031 C 192.8125 129.40625 192.082031 131.078125 191.300781 132.730469 C 191.148438 133.050781 191 133.375 190.847656 133.695312 C 189.570312 136.414062 188.125 139.03125 186.5625 141.597656 C 186.46875 141.75 186.46875 141.75 186.371094 141.910156 C 185.726562 142.964844 185.074219 144.011719 184.375 145.03125 C 184.273438 145.179688 184.171875 145.332031 184.070312 145.480469 C 183.289062 146.628906 182.492188 147.765625 181.667969 148.882812 C 181.585938 148.992188 181.507812 149.101562 181.425781 149.214844 C 180.929688 149.867188 180.410156 150.378906 179.582031 150.550781 C 178.75 150.605469 177.984375 150.511719 177.171875 150.320312 C 177.007812 150.28125 177.007812 150.28125 176.839844 150.242188 C 176.476562 150.160156 176.113281 150.074219 175.75 149.992188 C 175.488281 149.933594 175.226562 149.871094 174.964844 149.8125 C 174.402344 149.683594 173.839844 149.554688 173.28125 149.425781 C 172.382812 149.21875 171.484375 149.011719 170.585938 148.808594 C 170.277344 148.738281 169.96875 148.667969 169.660156 148.597656 C 169.582031 148.578125 169.507812 148.5625 169.429688 148.542969 C 168.878906 148.417969 168.328125 148.292969 167.78125 148.167969 C 164.984375 147.523438 162.183594 146.890625 159.382812 146.261719 C 158.199219 145.996094 157.015625 145.726562 155.828125 145.460938 C 155.425781 145.371094 155.023438 145.277344 154.621094 145.1875 C 153.851562 145.015625 153.078125 144.839844 152.308594 144.664062 C 152.15625 144.632812 152.003906 144.597656 151.851562 144.5625 C 149.816406 144.101562 147.777344 143.644531 145.742188 143.183594 C 144.875 142.988281 144.007812 142.789062 143.136719 142.59375 C 142.546875 142.460938 141.953125 142.328125 141.359375 142.195312 C 141.019531 142.117188 140.679688 142.039062 140.335938 141.960938 C 139.613281 141.800781 138.886719 141.632812 138.164062 141.46875 C 137.800781 141.382812 137.4375 141.304688 137.074219 141.226562 C 136.839844 141.171875 136.601562 141.121094 136.367188 141.066406 C 136.257812 141.042969 136.152344 141.019531 136.039062 140.996094 C 135.421875 140.855469 135.03125 140.703125 134.582031 140.242188 C 134.453125 139.980469 134.449219 139.78125 134.441406 139.488281 C 134.433594 139.390625 134.429688 139.292969 134.425781 139.191406 C 134.519531 138.660156 134.828125 138.390625 135.246094 138.082031 C 135.546875 137.878906 135.851562 137.679688 136.160156 137.484375 C 137.683594 136.488281 139.15625 135.449219 140.53125 134.253906 C 140.8125 134.015625 141.097656 133.78125 141.386719 133.554688 C 142.632812 132.535156 143.765625 131.386719 144.902344 130.253906 C 144.953125 130.203125 145.003906 130.152344 145.058594 130.097656 C 145.652344 129.507812 146.230469 128.910156 146.769531 128.269531 C 146.863281 128.164062 146.953125 128.058594 147.046875 127.953125 C 147.765625 127.113281 148.445312 126.246094 149.109375 125.359375 C 149.210938 125.226562 149.3125 125.089844 149.417969 124.953125 C 151.347656 122.414062 152.9375 119.660156 154.375 116.816406 C 154.425781 116.71875 154.472656 116.625 154.523438 116.523438 C 158.835938 107.933594 160.507812 98.046875 157.101562 76.1875 C 155.003906 69.964844 151.710938 64.171875 147.5 59.136719 C 147.453125 59.082031 147.410156 59.027344 147.359375 58.972656 C 146.207031 57.59375 144.980469 56.296875 143.710938 55.023438 C 143.625 54.9375 143.539062 54.851562 143.449219 54.761719 C 142.941406 54.253906 142.421875 53.773438 141.875 53.304688 C 141.761719 53.207031 141.648438 53.109375 141.535156 53.007812 C 140.605469 52.199219 139.636719 51.441406 138.644531 50.703125 C 138.570312 50.648438 138.496094 50.589844 138.417969 50.535156 C 136.664062 49.234375 134.847656 48.054688 132.945312 46.984375 C 132.71875 46.859375 132.496094 46.726562 132.269531 46.597656 C 124.949219 42.371094 116.054688 40.113281 106.746094 40.066406 C 106.644531 40.066406 106.542969 40.066406 106.4375 40.066406 C 96.703125 40.085938 87.089844 42.835938 70.625 54.140625 C 70.53125 54.222656 70.4375 54.308594 70.339844 54.394531 C 69.714844 54.960938 69.105469 55.542969 68.507812 56.136719 C 68.40625 56.238281 68.40625 56.238281 68.300781 56.34375 C 67.839844 56.804688 67.40625 57.289062 66.980469 57.785156 C 66.871094 57.90625 66.761719 58.03125 66.652344 58.15625 C 65.898438 59.015625 65.175781 59.894531 64.480469 60.804688 C 64.402344 60.902344 64.402344 60.902344 64.324219 61.003906 C 62.671875 63.15625 61.210938 65.453125 59.925781 67.84375 C 59.832031 68.011719 59.742188 68.183594 59.648438 68.355469 C 55.375 76.179688 53.410156 85.109375 55.605469 108.234375 C 57.640625 115.058594 60.980469 121.730469 65.675781 127.136719 C 65.917969 127.414062 66.148438 127.699219 66.378906 127.988281 C 67.367188 129.195312 68.476562 130.296875 69.578125 131.398438 C 69.714844 131.535156 69.714844 131.535156 69.851562 131.675781 C 70.371094 132.195312 70.902344 132.6875 71.457031 133.164062 C 71.570312 133.261719 71.683594 133.359375 71.796875 133.460938 C 72.65625 134.207031 73.542969 134.90625 74.453125 135.589844 C 74.691406 135.765625 74.925781 135.945312 75.160156 136.125 C 77.117188 137.601562 79.199219 138.863281 81.355469 140.035156 C 81.453125 140.085938 81.550781 140.140625 81.652344 140.195312 C 87.175781 143.191406 93.144531 144.765625 99.238281 146.121094 C 99.8125 146.25 100.386719 146.378906 100.964844 146.507812 C 101.207031 146.5625 101.449219 146.617188 101.6875 146.671875 C 101.871094 146.710938 101.871094 146.710938 102.058594 146.753906 C 102.433594 146.839844 102.808594 146.921875 103.183594 147.007812 C 105.035156 147.421875 106.882812 147.835938 108.730469 148.253906 C 108.796875 148.269531 108.863281 148.285156 108.933594 148.300781 C 109.691406 148.472656 110.449219 148.644531 111.207031 148.816406 C 112.550781 149.121094 113.894531 149.425781 115.238281 149.730469 C 115.382812 149.761719 115.523438 149.796875 115.667969 149.828125 C 118.882812 150.554688 122.097656 151.28125 125.3125 152.007812 C 129.707031 153 134.101562 153.992188 138.496094 154.988281 C 139.613281 155.242188 140.730469 155.492188 141.851562 155.746094 C 141.953125 155.769531 141.953125 155.769531 142.058594 155.792969 C 145.050781 156.472656 148.042969 157.148438 151.035156 157.824219 C 152.015625 158.046875 153 158.269531 153.980469 158.488281 C 154.105469 158.519531 154.226562 158.546875 154.355469 158.574219 C 159.53125 159.742188 164.707031 160.914062 169.878906 162.085938 C 170.890625 162.3125 171.902344 162.542969 172.914062 162.769531 C 173.285156 162.855469 173.65625 162.9375 174.027344 163.023438 C 174.269531 163.078125 174.511719 163.132812 174.753906 163.1875 C 176.011719 163.472656 177.269531 163.757812 178.527344 164.042969 C 178.964844 164.140625 179.398438 164.238281 179.832031 164.335938 C 179.9375 164.363281 180.042969 164.386719 180.152344 164.410156 C 181.574219 164.734375 182.996094 165.050781 184.417969 165.371094 C 185.179688 165.539062 185.941406 165.710938 186.699219 165.882812 C 187.304688 166.015625 187.910156 166.152344 188.515625 166.285156 C 188.882812 166.367188 189.25 166.449219 189.617188 166.535156 C 189.785156 166.570312 189.953125 166.609375 190.125 166.644531 C 190.355469 166.695312 190.582031 166.75 190.8125 166.800781 C 190.941406 166.828125 191.070312 166.859375 191.199219 166.886719 C 191.769531 167.0625 192.289062 167.296875 192.589844 167.832031 C 192.632812 167.902344 192.671875 167.96875 192.714844 168.039062 C 192.949219 168.535156 193.023438 169.078125 192.84375 169.605469 C 192.585938 170.195312 192.269531 170.691406 191.882812 171.203125 C 191.761719 171.367188 191.636719 171.53125 191.515625 171.695312 C 191.457031 171.78125 191.394531 171.863281 191.332031 171.949219 C 191.035156 172.359375 190.75 172.777344 190.46875 173.195312 C 190.023438 173.851562 189.570312 174.5 189.101562 175.140625 C 188.636719 175.78125 188.179688 176.425781 187.734375 177.082031 C 186.855469 178.367188 185.953125 179.636719 185.054688 180.90625 C 184.472656 181.734375 183.890625 182.5625 183.3125 183.394531 C 183.003906 183.828125 182.699219 184.261719 182.394531 184.699219 C 182.273438 184.871094 182.152344 185.046875 182.03125 185.21875 C 181.789062 185.566406 181.546875 185.914062 181.300781 186.261719 C 181.242188 186.347656 181.183594 186.433594 181.121094 186.519531 C 181 186.695312 180.878906 186.867188 180.753906 187.039062 C 180.449219 187.480469 180.144531 187.917969 179.835938 188.355469 C 179.21875 189.238281 178.597656 190.125 177.972656 191.003906 C 177.386719 191.832031 176.808594 192.664062 176.226562 193.492188 C 175.863281 194.015625 175.496094 194.535156 175.128906 195.058594 C 174.824219 195.496094 174.519531 195.933594 174.210938 196.371094 C 173.59375 197.257812 172.972656 198.140625 172.347656 199.023438 C 171.761719 199.847656 171.183594 200.679688 170.601562 201.507812 C 170.238281 202.03125 169.871094 202.550781 169.503906 203.074219 C 169.199219 203.511719 168.894531 203.949219 168.585938 204.386719 C 167.96875 205.273438 167.347656 206.15625 166.722656 207.039062 C 166.136719 207.867188 165.558594 208.695312 164.976562 209.523438 C 164.671875 209.960938 164.367188 210.394531 164.0625 210.832031 C 163.941406 211.003906 163.820312 211.179688 163.699219 211.351562 C 163.453125 211.699219 163.210938 212.046875 162.96875 212.394531 C 162.910156 212.480469 162.847656 212.566406 162.785156 212.652344 C 162.664062 212.828125 162.542969 213 162.421875 213.171875 C 162.117188 213.613281 161.808594 214.050781 161.503906 214.488281 C 160.882812 215.371094 160.261719 216.257812 159.640625 217.136719 C 159.054688 217.964844 158.472656 218.792969 157.894531 219.625 C 157.527344 220.148438 157.164062 220.667969 156.796875 221.191406 C 156.492188 221.628906 156.183594 222.066406 155.878906 222.503906 C 155.257812 223.390625 154.636719 224.273438 154.015625 225.15625 C 153.429688 225.980469 152.847656 226.8125 152.269531 227.640625 C 151.902344 228.164062 151.539062 228.683594 151.171875 229.207031 C 150.867188 229.644531 150.558594 230.082031 150.253906 230.519531 C 149.632812 231.40625 149.011719 232.289062 148.390625 233.171875 C 147.804688 234 147.222656 234.828125 146.644531 235.65625 C 146.277344 236.179688 145.914062 236.703125 145.546875 237.222656 C 145.242188 237.660156 144.933594 238.097656 144.628906 238.539062 C 144.007812 239.421875 143.386719 240.308594 142.765625 241.1875 C 142.179688 242.015625 141.597656 242.84375 141.019531 243.675781 C 140.714844 244.109375 140.410156 244.546875 140.105469 244.980469 C 139.984375 245.15625 139.859375 245.328125 139.738281 245.503906 C 139.496094 245.847656 139.253906 246.195312 139.011719 246.542969 C 138.921875 246.671875 138.921875 246.671875 138.828125 246.804688 C 138.707031 246.976562 138.585938 247.148438 138.464844 247.324219 C 138.15625 247.761719 137.851562 248.199219 137.542969 248.636719 C 136.925781 249.523438 136.304688 250.40625 135.679688 251.289062 C 135.097656 252.113281 134.515625 252.945312 133.9375 253.773438 C 133.570312 254.296875 133.203125 254.816406 132.839844 255.339844 C 132.53125 255.777344 132.226562 256.214844 131.917969 256.652344 C 131.300781 257.539062 130.679688 258.421875 130.054688 259.304688 C 129.472656 260.132812 128.890625 260.960938 128.3125 261.789062 C 127.945312 262.3125 127.578125 262.835938 127.214844 263.355469 C 126.90625 263.792969 126.601562 264.230469 126.292969 264.671875 C 125.675781 265.554688 125.054688 266.441406 124.429688 267.320312 C 123.847656 268.148438 123.265625 268.976562 122.6875 269.808594 C 122.320312 270.328125 121.953125 270.851562 121.589844 271.375 C 121.28125 271.8125 120.976562 272.25 120.667969 272.6875 C 120.050781 273.570312 119.429688 274.457031 118.804688 275.339844 C 118.222656 276.164062 117.640625 276.996094 117.0625 277.824219 C 116.753906 278.261719 116.449219 278.695312 116.144531 279.132812 C 116.023438 279.304688 115.902344 279.476562 115.78125 279.652344 C 115.539062 280 115.296875 280.34375 115.050781 280.691406 C 114.960938 280.820312 114.960938 280.820312 114.871094 280.953125 C 114.75 281.125 114.628906 281.300781 114.503906 281.472656 C 114.199219 281.910156 113.894531 282.347656 113.585938 282.785156 C 112.96875 283.671875 112.347656 284.554688 111.722656 285.4375 C 111.386719 285.914062 111.050781 286.390625 110.71875 286.867188 C 110.59375 287.039062 110.472656 287.214844 110.351562 287.390625 C 110.03125 287.847656 109.710938 288.304688 109.398438 288.765625 C 109.300781 288.90625 109.300781 288.90625 109.199219 289.050781 C 109.078125 289.230469 108.953125 289.410156 108.832031 289.589844 C 108.40625 290.207031 107.949219 290.808594 107.1875 291 C 106.464844 291.082031 105.910156 291.003906 105.3125 290.582031 C 104.871094 290.136719 104.515625 289.625 104.167969 289.105469 C 104.066406 288.960938 103.964844 288.8125 103.867188 288.664062 C 103.8125 288.585938 103.761719 288.507812 103.707031 288.429688 C 103.417969 288.007812 103.125 287.589844 102.832031 287.171875 C 102.738281 287.042969 102.738281 287.042969 102.644531 286.910156 C 102.519531 286.730469 102.394531 286.550781 102.269531 286.375 C 101.964844 285.9375 101.660156 285.5 101.355469 285.066406 C 101.234375 284.890625 101.109375 284.71875 100.988281 284.542969 C 90.050781 268.925781 90.050781 268.925781 89.871094 268.667969 C 89.75 268.492188 89.628906 268.320312 89.503906 268.148438 C 89.199219 267.710938 88.894531 267.273438 88.585938 266.835938 C 88.015625 266.019531 87.449219 265.207031 86.875 264.398438 C 86.238281 263.5 85.609375 262.597656 84.976562 261.695312 C 84.671875 261.261719 84.367188 260.824219 84.0625 260.390625 C 83.941406 260.21875 83.820312 260.042969 83.699219 259.871094 C 83.636719 259.785156 83.578125 259.699219 83.515625 259.609375 C 77.5 251.019531 71.484375 242.429688 53.621094 216.921875 C 53.5 216.75 53.378906 216.574219 53.253906 216.402344 C 52.949219 215.964844 52.644531 215.527344 52.335938 215.089844 C 51.765625 214.277344 51.199219 213.464844 50.625 212.652344 C 49.988281 211.753906 49.359375 210.855469 48.726562 209.953125 C 48.421875 209.515625 48.117188 209.082031 47.8125 208.644531 C 47.691406 208.472656 47.570312 208.296875 47.449219 208.125 C 47.359375 207.996094 47.359375 207.996094 47.265625 207.863281 C 41.25 199.273438 35.234375 190.6875 20.46875 169.601562 C 20.410156 169.515625 20.347656 169.429688 20.285156 169.34375 C 20.164062 169.167969 20.042969 168.996094 19.921875 168.820312 C 19.621094 168.390625 19.320312 167.964844 19.019531 167.539062 C 16.863281 164.503906 14.917969 161.304688 13.125 158.046875 C 13.066406 157.941406 13.011719 157.835938 12.949219 157.730469 C 11.289062 154.710938 9.800781 151.632812 8.4375 148.46875 C 8.40625 148.394531 8.375 148.320312 8.339844 148.246094 C 4.8125 140.058594 2.410156 131.371094 0.390625 117.019531 C 0.382812 116.9375 0.375 116.859375 0.367188 116.777344 C 0.304688 116.167969 0.253906 115.554688 0.207031 114.941406 C 0.199219 114.824219 0.191406 114.703125 0.179688 114.582031 C 0.00390625 112.167969 -0.0351562 109.761719 -0.03125 107.34375 C -0.03125 106.941406 -0.03125 106.539062 -0.0351562 106.136719 C -0.0507812 102.378906 0.109375 98.632812 0.546875 94.898438 C 0.558594 94.808594 0.566406 94.714844 0.578125 94.617188 C 1.53125 86.332031 3.394531 78.121094 9.6875 61.949219 C 9.722656 61.871094 9.757812 61.792969 9.796875 61.714844 C 11.015625 59.058594 12.324219 56.46875 13.777344 53.933594 C 13.964844 53.605469 14.152344 53.277344 14.335938 52.949219 C 15.144531 51.527344 15.996094 50.148438 16.90625 48.789062 C 17.089844 48.507812 17.273438 48.222656 17.453125 47.9375 C 17.78125 47.417969 18.121094 46.910156 18.46875 46.402344 C 18.527344 46.316406 18.585938 46.230469 18.648438 46.144531 C 19.160156 45.402344 19.679688 44.664062 20.207031 43.9375 C 20.265625 43.859375 20.320312 43.785156 20.375 43.707031 C 21.167969 42.621094 21.972656 41.546875 22.8125 40.5 C 22.867188 40.433594 22.917969 40.367188 22.976562 40.296875 C 23.609375 39.511719 24.25 38.726562 24.910156 37.957031 C 25.199219 37.617188 25.480469 37.269531 25.761719 36.921875 C 26.269531 36.296875 26.820312 35.71875 27.371094 35.132812 C 27.683594 34.800781 27.984375 34.460938 28.28125 34.117188 C 28.503906 33.867188 28.738281 33.636719 28.976562 33.40625 C 29.148438 33.230469 29.304688 33.050781 29.464844 32.863281 C 29.996094 32.253906 30.574219 31.683594 31.152344 31.109375 C 31.347656 30.914062 31.542969 30.71875 31.738281 30.523438 C 32.875 29.390625 32.875 29.390625 33.480469 28.878906 C 33.664062 28.71875 33.839844 28.546875 34.011719 28.371094 C 34.320312 28.058594 34.644531 27.765625 34.976562 27.480469 C 35.242188 27.246094 35.503906 27.007812 35.761719 26.769531 C 36.226562 26.347656 36.703125 25.945312 37.195312 25.550781 C 37.539062 25.269531 37.875 24.980469 38.210938 24.6875 C 38.867188 24.121094 39.546875 23.578125 40.234375 23.046875 C 40.414062 22.90625 40.59375 22.765625 40.773438 22.621094 C 42.171875 21.515625 43.597656 20.457031 45.058594 19.4375 C 45.339844 19.242188 45.617188 19.046875 45.898438 18.847656 C 46.972656 18.097656 48.046875 17.363281 49.167969 16.683594 C 49.390625 16.546875 49.609375 16.40625 49.828125 16.265625 C 53.90625 13.65625 58.191406 11.359375 62.605469 9.371094 C 62.714844 9.320312 62.820312 9.273438 62.933594 9.222656 C 68.597656 6.664062 74.496094 4.632812 80.519531 3.125 C 80.597656 3.105469 80.675781 3.085938 80.753906 3.066406 C 86.433594 1.636719 92.230469 0.714844 98.066406 0.242188 C 98.144531 0.234375 98.222656 0.226562 98.300781 0.222656 C 100.175781 0.0703125 102.046875 -0.015625 103.925781 -0.015625 Z M 103.925781 -0.015625 "/>
</g>
</svg>
